<?xml version="1.0" standalone="no"?>
<!DOCTYPE svg PUBLIC "-//W3C//DTD SVG 1.1//EN" "http://www.w3.org/Graphics/SVG/1.1/DTD/svg11.dtd" >
<svg xmlns="http://www.w3.org/2000/svg" xmlns:xlink="http://www.w3.org/1999/xlink" version="1.1">
<metadata></metadata>
<defs>
<font id="beryliumitalic" horiz-adv-x="868" >
<font-face units-per-em="2048" ascent="1638" descent="-410" />
<missing-glyph horiz-adv-x="500" />
<glyph horiz-adv-x="0" />
<glyph unicode="&#xd;" horiz-adv-x="587" />
<glyph unicode="!" horiz-adv-x="344" d="M80 102l133 121l80 -127l-135 -137zM254 395l88 477l57 476l113 120l78 -114l-148 -469l-135 -490h-53z" />
<glyph unicode="&#x22;" horiz-adv-x="573" d="M305 860l53 316l-12 190l125 129l55 -113l-82 -217l-90 -305h-49zM573 860l60 309l-8 220l135 141l45 -166l-88 -201l-103 -309z" />
<glyph unicode="#" horiz-adv-x="1155" d="M205 547l33 96l122 -14l154 18l141 303l-139 -6l-133 -14l39 110l143 -18l129 8l207 438l33 -34h45l-250 -418h127l133 14l121 230l84 198l25 -35l69 17l-119 -185l-129 -237l150 12l127 21l-35 -129l-111 22l-161 -4l-162 -307l147 10l123 6l-31 -121l-88 39l-196 -24 l-164 -332l-68 -160l-30 27l-49 18l260 455l-246 -12l-129 -256l-94 -224l-72 62l260 444l-156 -8zM547 637l246 -8l120 252l64 65l-135 4l-121 4z" />
<glyph unicode="$" horiz-adv-x="956" d="M137 86l25 213l16 166l33 -2l14 -131l76 -223l141 -52l50 2l122 594l-30 -12l-154 141l-61 275l112 227l174 125l131 29l27 137l59 -4l-45 -137h148l133 -82l-90 -297l-41 -8l20 163l-75 154l-101 22l-110 -555l180 -155l57 -258l-57 -180l-162 -168l-209 -86l-31 -168 l-61 -6l51 190h-151zM520 1067l51 -143l91 -88l118 546l-98 -28l-117 -99zM537 57l100 23l98 102l45 125l-12 205l-111 100z" />
<glyph unicode="%" horiz-adv-x="1540" d="M291 1026l112 274l166 127l127 25l154 -53l74 -258l-64 -273l-127 -180l-131 -92l8 16l-174 13l-143 174zM307 -4l572 709l551 780l73 -88l-561 -703l-549 -792zM467 698l68 -41l129 95l75 268l43 293l-82 90l-65 -14l-92 -121l-64 -291zM936 258l61 303l129 219l174 41 l142 -22l112 -203l-41 -281l-112 -241l-172 -90l-203 39zM1067 313l2 -209l70 -77l135 53l119 254l30 280l-14 144l-145 -19l-125 -155z" />
<glyph unicode="&#x26;" horiz-adv-x="1441" d="M147 309l74 254l185 182l198 140l-74 -17l-81 140l4 180l92 155l186 117l215 2l103 -119l2 -186l-113 -153l-152 -93l-30 -26l243 -426l179 252l43 125l-52 57l-2 51l160 -37l258 17l-18 -41l-129 -31l-221 -180l-226 -293l39 16l111 -227l143 -86l146 4l-19 -80 l-229 -33l-189 23l-94 285l-143 -160l-215 -133l-166 -11l-158 76zM303 393l82 -194l145 -90l207 63l140 131l-289 526l-107 -67l-121 -144zM598 1262l10 -168l115 -170l100 45l107 178l-8 184l-129 78l-121 -43z" />
<glyph unicode="'" horiz-adv-x="294" d="M309 864l47 316l2 233l111 78l63 -78l-96 -242l-78 -294z" />
<glyph unicode="(" horiz-adv-x="684" d="M240 399l100 346l227 412l273 316l24 -52l-229 -297l-203 -430l-88 -407l-14 -373l147 -389l-37 -57l-127 247l-65 381z" />
<glyph unicode=")" horiz-adv-x="684" d="M16 -479l189 221l170 311l125 418l59 371l-33 280l-69 168l-41 137l43 35l153 -405l37 -436l-90 -414l-211 -379l-317 -356z" />
<glyph unicode="*" horiz-adv-x="962" d="M301 1053l115 80l227 -27l-129 211l74 141l92 -28l39 -287l143 278l144 60l-13 -146l-215 -233l271 49l51 -98l-109 -90l-235 63l121 -211l-56 -141l-114 39l-13 295l-123 -271l-131 -90l-26 135l215 240l-236 -51z" />
<glyph unicode="+" horiz-adv-x="802" d="M190 526l41 174l287 -28l82 387l105 8l-107 -379l285 -18l-43 -119l-269 -10l-45 -369l-129 14l86 349z" />
<glyph unicode="," horiz-adv-x="479" d="M12 -414l15 60l137 57l110 145l-14 125l-24 62l-72 -29l-70 92l154 150l108 -109l21 -225l-70 -150l-131 -114z" />
<glyph unicode="-" horiz-adv-x="585" d="M193 453l34 149l199 -45l203 31l-45 -174l-154 35z" />
<glyph unicode="." horiz-adv-x="411" d="M98 76l144 160l77 -134l-135 -143z" />
<glyph unicode="/" horiz-adv-x="585" d="M-100 -371l458 836l449 997l98 -41l-526 -997l-375 -819z" />
<glyph unicode="0" horiz-adv-x="956" d="M174 383l55 383l113 340l193 248l172 90l167 8l160 -135l39 -313l-51 -367l-152 -391l-213 -234l-211 -47l-178 105zM338 201l80 -172l114 -6l140 122l137 330l80 414l24 346l-73 141l-113 13l-59 -19l-107 -115l-135 -411l-84 -346z" />
<glyph unicode="1" horiz-adv-x="708" d="M70 53l147 10l100 144l218 1055l-80 112l-117 2l18 74l189 -41l196 25l-280 -1211l69 -153l132 -29l-17 -53l-287 24l-278 -22z" />
<glyph unicode="2" horiz-adv-x="933" d="M0 -27l268 256l350 334l203 316l31 264l-109 151l-211 -45l-170 -143l-40 22l157 191l203 127l217 -2l143 -150l-24 -284l-154 -277l-311 -334l-340 -278l100 41l369 6l156 100l92 140l33 -25l-111 -176l-100 -213l-336 18z" />
<glyph unicode="3" horiz-adv-x="856" d="M106 248l121 125l86 -113l-69 -84l129 -143l192 41l133 186l21 203l-119 180l-125 47l-129 -14l242 147l155 117l97 201l-95 188l-196 -29l-187 -159l-24 30l176 205l211 97l197 -33l94 -172l-58 -205l-159 -164l-183 -102l146 -25l98 -113l47 -141l-69 -250l-131 -153 l-183 -115l-237 -16l-140 168z" />
<glyph unicode="4" horiz-adv-x="956" d="M66 440l876 1026l35 -36l-172 -826l-47 -26l264 18l-12 -160l-213 -4l-41 -26l-43 -207l69 -148l68 -4l-2 -53l-258 10l-234 -20l15 63l94 43l102 100l51 240zM272 584l377 12l115 545l55 94z" />
<glyph unicode="5" horiz-adv-x="872" d="M102 168l4 68l146 124l78 -137l-60 -55l82 -121l117 -12l182 137l84 217l2 270l-147 127l-187 -32l-124 -86l-33 22l143 383l92 361l457 -7l88 64l37 70l27 -25l-129 -301l-480 27l19 -19l-125 -373l213 70l243 -100l103 -232l-68 -276l-198 -264l-262 -101l-222 49z" />
<glyph unicode="6" horiz-adv-x="960" d="M150 406l73 301l240 364l325 266l314 154l-2 -41l-252 -172l-330 -356l-69 -97l200 99l234 -41l112 -185l-14 -313l-119 -260l-270 -135l-230 -2l-167 125zM291 254l78 -195l159 -32l121 41l101 108l79 225l2 213l-96 193l-192 22l-146 -71l4 -19l-88 -247z" />
<glyph unicode="7" horiz-adv-x="890" d="M72 -18l979 1314l-76 -39l-453 11l-164 -103l-57 -108l-43 10l156 373l415 -23l412 39l-575 -786l-437 -680z" />
<glyph unicode="8" horiz-adv-x="874" d="M92 258l78 236l162 149l149 90l-145 146l-37 211l100 229l217 121l218 26l174 -92l26 -194l-71 -189l-119 -114l-135 -84l120 -150l74 -223l-59 -213l-162 -172l-211 -64l-188 11l-140 100zM242 229l18 -133l113 -69l149 -4l162 120l59 207l-41 166l-75 111l-95 67l7 29 l-117 -80l-121 -207zM451 1124l43 -178l104 -94l47 -37l-20 -43l102 76l98 190l60 189l-45 133l-92 63l-162 -41l-99 -94z" />
<glyph unicode="9" horiz-adv-x="948" d="M127 -16l287 178l268 237l141 244l-108 -63l-242 -41l-151 73l-76 160l20 264l160 252l203 150l256 37l174 -138l57 -276l-96 -379l-232 -338l-360 -274l-283 -121zM416 877l41 -156l123 -100l165 22l129 92l-6 17l74 286l14 197l-47 123l-112 59l-144 -24l-135 -121 l-76 -182z" />
<glyph unicode=":" horiz-adv-x="409" d="M100 104l142 134l100 -119l-154 -170zM248 797l164 153l80 -151l-154 -142z" />
<glyph unicode=";" horiz-adv-x="454" d="M43 -414l94 68l99 115l57 174l-70 86l-65 -39l-66 125l152 116l82 -30l69 -162l-39 -199l-135 -168l-153 -121zM266 778l170 170l99 -164l-170 -147z" />
<glyph unicode="&#x3c;" horiz-adv-x="923" d="M256 555l35 145l444 250l299 221l-37 -163l-493 -295l-174 -101l495 -407l-41 -142l-465 453z" />
<glyph unicode="=" horiz-adv-x="1155" d="M244 356l37 131l432 -32l356 32l-10 -137l-363 21zM326 721l36 162l406 -31l393 12l-24 -141l-387 33z" />
<glyph unicode="&#x3e;" horiz-adv-x="923" d="M154 76l45 141l434 275l217 120l-96 68l-402 321l33 156l283 -278l250 -215l-11 -113l-317 -189z" />
<glyph unicode="?" horiz-adv-x="829" d="M258 1128l158 191l200 127l244 -2l141 -150l-22 -284l-78 -138l-395 -307l-55 -71l4 -105l63 -49l-96 -86l-82 111l53 143l332 295l57 76l29 264l-131 151l-213 -45l-168 -143zM317 80l121 121l78 -101l-123 -135z" />
<glyph unicode="@" horiz-adv-x="1734" d="M248 96l31 570l356 585l567 209l410 -157l155 -351l-108 -471l-414 -366l-102 4l-72 110l-125 -98l-164 -41l-151 98l43 273l157 121l369 123l-43 14l25 125l-29 94l-104 47l-131 -106l32 -76l-114 -88l-72 92l291 242l188 12l76 -197l-137 -557l30 -71l70 10l315 252 l132 432l-140 332l-383 143l-514 -229l-301 -504l-74 -533l195 -282l322 -105l317 53l274 185l31 -29l-307 -192l-303 -78l-400 119zM760 291l84 -92l104 -11l119 86l63 361l-323 -139z" />
<glyph unicode="A" horiz-adv-x="1243" d="M14 -6l13 57l88 12l100 119l717 1342l72 28l53 -841l73 -543l76 -111l72 -10l-27 -51l-231 10l-197 -12l-6 63l62 -6l82 109l-43 403l30 41h-461l7 -37l-185 -366l-2 -144l127 -18v-45l-211 22zM537 682l389 -16l-72 553l31 118z" />
<glyph unicode="B" horiz-adv-x="1148" d="M84 -18l35 71l92 21l100 133l211 1044l-41 115l-84 20l6 52l199 -11l166 17l334 -55l117 -201l-54 -219l-157 -154l-205 -53l112 -17l117 -55l96 -149l5 -170l-113 -209l-268 -166zM455 166l69 -127l131 -4l168 67l103 129l47 201l-70 182l-174 97h-190l18 -23zM592 762 l143 4l162 65l125 121l37 205l-82 168l-154 80l-149 -12l47 -27z" />
<glyph unicode="C" horiz-adv-x="1243" d="M193 315l2 367l137 350l235 279l318 133l366 16l193 -119l-21 -155l-26 -199l-51 10l2 168l-33 164l-205 80l-303 -74l-254 -256l-141 -362l-27 -328l143 -254l240 -112l203 36l225 209l92 187l39 -15l-182 -389l-215 -69l-268 -21l-297 125z" />
<glyph unicode="D" horiz-adv-x="1435" d="M80 -18l4 51l123 43l108 147l207 996l-39 155h-92l8 56l207 -9l189 29l204 2l275 -98l223 -244l29 -330l-123 -372l-283 -265l-291 -131l-270 -24l-217 18zM481 168l133 -129l258 37l215 160l146 243l78 346l-37 303l-195 179l-237 82l-180 -7l45 -30l-226 -1030v-154z " />
<glyph unicode="E" horiz-adv-x="1144" d="M59 -18l23 53l135 47l92 154l205 1009l-45 137h-92l16 58l467 -13l443 7l-66 -154l-27 -174l-39 -4l7 194l-134 80l-407 -16l63 -8l-120 -580l286 10l131 86l56 125l41 -18l-80 -240l-29 -225l-51 -4v106l-2 9l-107 73h-301l33 -45l-96 -426l80 -149l151 -27l201 35 l174 166l70 205l45 -23l-70 -207l-115 -233l-637 10z" />
<glyph unicode="F" horiz-adv-x="1015" d="M82 -10l4 33l102 30l101 113l235 1096l-57 112l-90 2l8 51l393 7l516 12l-67 -156l-41 -190l-47 -15l30 172l-110 132l-387 -9l37 -55l-125 -567l264 -13l135 70l78 150l22 -25l-88 -246l-32 -245h-45l12 124l-78 86l-338 21l33 -53l-78 -363l45 -178l111 -29l-15 -69 l-250 24z" />
<glyph unicode="G" horiz-adv-x="1339" d="M184 395l60 457l221 334l342 235l383 39l330 -80l-70 -170l-33 -206l-37 6l-20 235l-164 152l-264 2l-248 -127l-162 -242l-102 -336l-21 -258l117 -235l207 -138l231 -30l101 69l53 250l-25 133l-112 33l30 68l199 -31l223 31l-8 -45l-131 -80l-47 -254l49 -103 l-188 -90l-195 -32l-323 2l-252 135z" />
<glyph unicode="H" horiz-adv-x="1538" d="M61 -12l17 53l129 35l86 129l211 989l-35 160l-90 16l10 68l225 -15l285 27l8 -64l-98 -4l-123 -161l-106 -430l776 2l-62 38l78 426l-37 117l-121 23l37 43l236 -35l274 35l-10 -51l-82 -3l-119 -159l-229 -998l39 -137l98 -57l-2 -39l-246 22l-280 -28l18 57l107 12 l114 162l99 479l-752 7l43 -31l-57 -320l-29 -247l115 -86l18 -23z" />
<glyph unicode="I" horiz-adv-x="669" d="M72 -6l12 57l160 53l45 97l229 1087l-104 88l-60 10l29 66l256 -59l274 47l5 -47l-125 -35l-107 -150l-229 -1018l41 -120l110 -37l-10 -51l-274 47z" />
<glyph unicode="J" horiz-adv-x="669" d="M-137 -371l4 68l178 39l180 223l84 217l205 1045l-43 139l-88 29l6 61l254 -33l264 23l2 -66h-78l-135 -129l-227 -1085l-139 -299l-316 -207z" />
<glyph unicode="K" horiz-adv-x="1341" d="M80 -6l16 41l109 22l102 131l209 994l-24 170l-95 34l9 48l215 -21l245 39l-2 -59l-98 -27l-76 -94l-90 -473l-72 -94l310 229l329 362l-16 90l-53 11l2 37l200 -11l183 17l28 -47l-79 -13l-211 -118l-519 -512l80 26l271 -516l176 -197l102 -34l-14 -45l-205 10l-147 96 l-148 238l-242 360l-77 -334l2 -239l127 -68l-13 -59l-254 28z" />
<glyph unicode="L" horiz-adv-x="1144" d="M72 -10l10 57l82 4l121 111l231 1110l-67 102h-93l19 76l246 -37l335 27l-28 -60l-127 -10l-105 -102l-247 -1106l43 -88l397 6l151 108l115 201l57 -12l-190 -393l-420 26z" />
<glyph unicode="M" horiz-adv-x="1630" d="M-31 -12v65l97 10l116 132l318 993l-35 170l-88 33l20 65l185 -29l184 19l-2 -60l-66 -34l131 -893l25 -201l115 246l483 813l-16 110l28 29l160 -35l195 21l-13 -58l-61 -2l-131 -143l-150 -1044l43 -132l103 -16l-6 -47l-295 12l-234 -24l-2 55l94 14l140 154l123 836 l28 180l-98 -185l-612 -1089l-101 512l-96 520l-2 186l-76 -286l-192 -690l41 -109l102 -39l-14 -55l-207 31z" />
<glyph unicode="N" horiz-adv-x="1437" d="M-12 -29l8 45l156 52l133 190l198 934l-73 174l-134 16l3 45l153 11l156 14l592 -1059l37 -102l178 917l-37 162l-144 29l17 53l246 -25l219 19v-49l-119 -23l-102 -149l-248 -1127l-15 -174l-645 1114l-26 150l-193 -957l66 -141l92 -37l-12 -59l-238 12z" />
<glyph unicode="O" horiz-adv-x="1439" d="M207 717l47 147l203 371l358 205l373 12l276 -172l90 -362l-86 -408l-208 -320l-326 -194l-289 -23l-268 101l-166 223zM406 393l131 -289l256 -57l297 143l172 291l92 383l-43 324l-97 170l-186 51l-201 -51l-231 -193l-174 -426z" />
<glyph unicode="P" horiz-adv-x="1050" d="M68 -10l8 61l106 23l111 137l215 1051l-78 118h-65l10 50l155 -13l283 23l252 -41l156 -164l-35 -272l-187 -234l-272 -108l-199 2l-84 -394l52 -149l112 -33l-14 -47l-260 23zM539 670l155 -6l238 122l104 246l-28 230l-174 104l-199 23l49 -48z" />
<glyph unicode="Q" horiz-adv-x="1439" d="M207 717l47 147l203 371l358 205l373 12l276 -172l90 -362l-86 -408l-208 -320l-326 -194l-289 -23l-268 101l-166 223zM406 393l131 -289l256 -57l297 143l172 291l92 383l-43 324l-97 170l-186 51l-201 -51l-231 -193l-174 -426zM610 -195l224 144l90 12l200 -92l129 8 l117 111l35 -35l-231 -193l-117 -14l-230 104l-192 -106z" />
<glyph unicode="R" horiz-adv-x="1267" d="M80 -4l18 51l131 35l86 113l234 1073l-62 98l-100 20l31 54l188 -13l230 19l208 -12l197 -183l-53 -288l-144 -160l-167 -70l94 -41l45 -309l55 -283l186 -61v-57l-219 6l-157 121l-50 450l-73 105l-178 8l-95 -414l11 -137l141 -74l-6 -51l-269 27zM590 721l201 29 l206 168l58 280l-121 184l-154 27l-116 -23l67 -16z" />
<glyph unicode="S" horiz-adv-x="956" d="M135 80l21 338l37 24l26 -219l135 -170l205 -6l189 154l24 231l-184 209l-195 211l10 233l123 244l222 135l223 4l162 -92l-86 -309h-31l-6 250l-133 92l-189 -33l-127 -227l35 -186l256 -236l129 -215l-51 -260l-180 -195l-224 -90l-221 21z" />
<glyph unicode="T" horiz-adv-x="1148" d="M227 1116l125 379l68 -74l938 6l82 82l-62 -409l-45 -17l-2 142l-127 129l-262 6l-237 -1092l18 -164l170 -65l-10 -45l-301 24l-326 -22l10 33l195 69l92 156l217 1071l51 33l-209 2l-211 -43l-137 -227z" />
<glyph unicode="U" horiz-adv-x="1435" d="M301 293l188 932l-40 139l-93 18l2 45l267 -12l254 25l-17 -58l-98 -12l-111 -151l-186 -881l106 -219l256 -33l238 66l158 221l172 831l-37 150l-98 43l18 37l217 -11l186 11l-12 -48l-76 -22l-92 -137l-137 -631l-123 -336l-231 -237l-299 -58l-287 68z" />
<glyph unicode="V" horiz-adv-x="1341" d="M344 1380l16 54l209 -17l258 13l-4 -41l-98 -13l-70 -133l111 -950l-23 -125l580 1065l-12 141l-103 25l9 41l192 -17l215 15l-10 -49l-84 -19l-158 -172l-682 -1225l-37 -98l-157 1288l-68 178z" />
<glyph unicode="W" horiz-adv-x="1734" d="M313 1382l15 56l202 -25l234 27l-4 -51l-88 -15l-88 -119l26 -866l-20 -129l500 959l104 215l45 6l49 -1086l-24 -86l483 987l-18 115l-93 27l13 37l182 -17l201 21v-52l-76 -16l-125 -119l-674 -1319l-59 1106l18 133l-651 -1251l-59 1409z" />
<glyph unicode="X" horiz-adv-x="1146" d="M27 -6l6 41l82 33l192 120l361 488l-150 602l-72 92l-94 19l4 47l234 -17l219 17l-8 -41l-68 -21l-41 -78l96 -401l-8 -76l297 432l2 125l-59 29l14 29l168 -21l209 27v-47l-104 -19l-150 -125l-334 -450l121 -496l80 -205l104 -47l-8 -61l-217 26l-211 -28v41l74 34 l43 80l-115 430v76l-305 -442l-18 -121l73 -45l-8 -37l-188 19z" />
<glyph unicode="Y" horiz-adv-x="1144" d="M328 -6l24 63l76 17l100 121l88 409l-157 727l-99 49l17 50l182 -25l215 33l-4 -45l-65 -19l-48 -74l101 -550l-35 -74l55 53l352 539l-20 125l-74 4l8 37l181 -17l194 21l-8 -45l-51 -7l-160 -124l-416 -605l-92 -409l27 -152l108 -49l-10 -47l-260 18z" />
<glyph unicode="Z" horiz-adv-x="1247" d="M55 -12l1098 1319l59 41l-514 -7l-194 -131l-109 -196l-20 18l121 389l462 -12l500 14l-1057 -1310l-55 -27l565 12l217 123l144 225h49l-176 -430l-871 -4z" />
<glyph unicode="[" horiz-adv-x="684" d="M72 -506l254 1004l155 968l377 -26l-14 -70h-285l37 -35l-369 -1765l242 -2l-25 -74h-372z" />
<glyph unicode="\" horiz-adv-x="577" d="M317 1430l82 38l97 -1886l-76 -24z" />
<glyph unicode="]" horiz-adv-x="684" d="M-23 -518l29 76l324 -7l-60 35l375 1739l66 39h-332l24 76l402 -2l-35 -80l-385 -1811l-6 -53z" />
<glyph unicode="^" horiz-adv-x="1734" d="M530 893l586 575h109l342 -553l-74 -26l-356 405l61 86l-600 -508z" />
<glyph unicode="_" d="M-98 -512l28 166l406 -37l416 21l-23 -181z" />
<glyph unicode="`" d="M596 1810l135 84l98 -364l-55 -19z" />
<glyph unicode="a" horiz-adv-x="874" d="M145 184l43 373l211 291l201 135l131 -6l162 -62l115 -12l-19 -41l-88 -43l-143 -667l33 -84l57 26l4 -57l-100 -19l-179 -53l41 111l31 129l-96 -109l-176 -119l-88 35zM311 479l19 -272l90 -98l137 47l133 135l-35 -4l103 461l10 108l-166 64l-160 -111z" />
<glyph unicode="b" horiz-adv-x="954" d="M104 70l70 55l254 1212l-31 82h-41l2 51l113 19l147 84l15 -33l-84 -264l-100 -445l237 121l272 -37l70 -319l-98 -328l-201 -198l-272 -88zM330 309l28 -196l150 -72l199 78l137 235l30 312l-112 170l-203 16l-166 -80l33 -16z" />
<glyph unicode="c" horiz-adv-x="739" d="M115 242l49 329l239 297l281 97l154 -27l61 -102l-117 -97l-116 140h-150l-147 -146l-74 -241l37 -261l141 -122l154 12l125 80l20 -19l-102 -112l-217 -82l-207 41z" />
<glyph unicode="d" horiz-adv-x="921" d="M127 184l43 373l211 291l270 117l99 4l165 -54l-43 62l103 385l-105 90l7 47l133 6l145 70l2 -43l-31 -62l-276 -1318l33 -84l57 26l4 -57l-100 -19l-178 -53l41 111l30 129l-96 -109l-213 -119l-162 35zM293 479l18 -272l164 -98l174 47l133 135l-34 -4l75 354l-39 217 l-163 41l-207 -117z" />
<glyph unicode="e" horiz-adv-x="770" d="M111 354l118 336l195 211l129 62l180 -17l117 -115l-2 -268l-621 -69l68 -23l-16 -35l38 -194l160 -133l178 41l115 129l25 -50l-224 -200l-176 -45l-200 79zM311 559l398 62l10 208l-119 89l-125 -39l-90 -86z" />
<glyph unicode="f" horiz-adv-x="495" d="M-180 -408l192 177l152 202l51 185l123 630l39 23l-184 6l10 53l166 90l88 283l188 254l193 68l71 -7l99 -36l-109 -107l-129 76l-100 -31l-101 -205l-84 -374l25 28l143 4l-14 -92l-160 -4l-145 -735l-88 -227l-164 -160l-244 -154z" />
<glyph unicode="g" horiz-adv-x="923" d="M82 -481l39 235l31 -12l18 -164l76 -65l131 22l170 125l119 184l61 256l-246 -112l-213 24l-141 217l39 322l233 291l226 108l202 -4l129 -88l72 117l35 -17l-57 -116l-205 -967l-96 -223l-175 -139l-196 -66l-180 14zM287 338l84 -207l172 -57l209 82l-29 20l100 471 l-8 156l-151 92l-177 -51l-143 -217z" />
<glyph unicode="h" horiz-adv-x="952" d="M43 6l10 33l82 35l58 102l233 1167l-72 80l4 50l121 20l133 80l15 -33l-176 -711l301 146l190 -82l25 -199l-109 -542l25 -111l35 -4l-7 -37l-145 12l-193 -12v41l68 10l78 88l102 527l-71 182h-144l-213 -92l43 -11l-137 -600l37 -82l55 -28l-14 -31l-164 19z" />
<glyph unicode="i" horiz-adv-x="452" d="M43 0l20 53l80 10l70 105l104 565l-49 88l-39 -12l-4 45l146 47l133 74l28 -25l-200 -805l45 -88l45 -34l-12 -39l-166 26zM414 1382l143 138l70 -150l-146 -113z" />
<glyph unicode="j" horiz-adv-x="432" d="M-160 -412l162 78l139 217l154 844l-39 66l-37 4l6 51l137 41l125 82l35 -33l-215 -922l-117 -276l-184 -143l-156 -62zM410 1393l145 120l66 -133l-123 -112z" />
<glyph unicode="k" horiz-adv-x="837" d="M47 -4l2 43l80 33l47 100l137 576l117 579l-39 98l-22 5l4 47l116 18l113 74l23 -21l-201 -803l-45 -253l274 301l9 71l-35 4l2 54l164 -11l215 37l-11 -49l-82 -10l-198 -107l-228 -241l54 8l215 -418l78 -96l34 -2l-6 -27l-133 -29l-129 105l-176 422l-107 -98l52 18 l-62 -305l29 -66l63 -12l-8 -41l-178 18z" />
<glyph unicode="l" horiz-adv-x="421" d="M37 0l10 53l70 4l78 121l245 1184l-49 63l2 58l111 22l104 64l39 -21l-244 -975l-84 -430l37 -90l62 -12l-10 -51l-179 26z" />
<glyph unicode="m" horiz-adv-x="1456" d="M39 35l63 18l78 82l115 608l-66 70l-6 39l148 53l84 72l30 8l-22 -125l-60 -98l132 110l190 80l174 -30l59 -131l142 110l184 64l152 -60l39 -192l-113 -531l8 -108l49 -33l6 -45l-153 20l-217 -20l8 45l98 16l74 127l86 469l-43 166l-211 2l-182 -116l63 12l-110 -545 l2 -92l65 -23l-10 -51l-156 10l-196 -22l20 47l58 12l79 86l109 561l-74 125l-205 -6l-161 -121l59 13l-123 -549l25 -92l69 -17l-6 -65l-176 28l-174 -20z" />
<glyph unicode="n" horiz-adv-x="940" d="M57 39l64 24l72 103l120 567l-47 86l-24 -10l-6 35l139 45l119 86l20 -23l-51 -155l139 98l240 74l135 -101l4 -198l-127 -545l43 -78l23 -12l-9 -41l-151 18l-172 -22l4 51l67 16l68 88l111 527l-54 170l-143 10l-252 -117l55 4l-127 -600l37 -86l68 -14l-12 -33l-195 4 l-154 -6z" />
<glyph unicode="o" horiz-adv-x="956" d="M119 211l24 283l174 325l258 131l222 -4l88 -28l125 -121l22 -256l-102 -287l-185 -201l-253 -65l-238 45zM270 354l49 -233l140 -88l170 26l139 187l115 315l-19 238l-116 96l-179 -6l-184 -178z" />
<glyph unicode="p" horiz-adv-x="954" d="M-66 -518l21 57l86 33l53 113l205 1077l-49 63l-4 52l119 32l108 66l21 -17l-41 -122l235 125l213 -29l121 -176l-18 -301l-142 -267l-215 -153l-219 -47l-186 18l43 -29l-62 -319l19 -100l110 -25l-12 -51l-190 29zM346 162l117 -103l190 31l129 141l88 273l-49 289 l-184 71l-227 -102l32 -27l-90 -368z" />
<glyph unicode="q" horiz-adv-x="954" d="M127 229l39 322l233 291l226 108l202 -4l129 -88l72 117l35 -17l-57 -116l-258 -1172l8 -114l65 -21l-10 -43l-178 21l-199 -27l10 47l107 39l67 111l76 407l-213 -102l-213 24zM287 338l84 -207l172 -57l209 82l-29 20l100 471l-8 156l-151 92l-177 -51l-143 -217z" />
<glyph unicode="r" horiz-adv-x="616" d="M59 -4l7 43l73 24l68 109l102 563l-45 72h-28l8 41l102 31l133 86l21 -25l-54 -174l-53 -123l209 252l125 63l72 -120l-133 -121l-52 92l-133 -92l-71 -168l-86 -387l36 -92l97 -31l-6 -35l-213 19z" />
<glyph unicode="s" horiz-adv-x="643" d="M78 68l37 235l30 -12l19 -164l104 -88l148 35l78 180l-58 125l-211 170l6 190l113 154l164 68l80 -7l131 -61l-39 -205l-33 6l-10 135l-90 82l-109 -26l-71 -119l18 -123l238 -244l4 -151l-113 -180l-182 -78l-182 20z" />
<glyph unicode="t" horiz-adv-x="464" d="M180 178l137 604l50 27l-156 -2l-14 35l309 280l37 -6l-54 -194l136 -4l-13 -109l-159 -10l-82 -393l-33 -254l37 -70l94 37l4 -43l-139 -99l-137 39z" />
<glyph unicode="u" horiz-adv-x="948" d="M190 96l52 373l67 317l-41 78l-41 19l-2 55l131 -14l133 28l-143 -684l66 -170h151l174 109l-24 24l114 562l-34 75l-70 15l2 51l137 -12l168 28l-108 -440l-82 -375l39 -49l59 12l-16 -51l-121 -8l-139 -57l28 161l-168 -108l-186 -41z" />
<glyph unicode="v" horiz-adv-x="835" d="M207 895l10 49l141 -16l168 10l11 -43l-80 -12l-39 -84l78 -576l-37 -121l389 705l-23 86l-55 8l12 62l142 -39l116 20l2 -39l-84 -37l-552 -938l-19 123l-90 744l-49 86z" />
<glyph unicode="w" horiz-adv-x="1316" d="M205 895l10 35l193 -8l157 28l-12 -51l-68 -6l-45 -72l56 -557l-27 -98l416 766l35 -10l34 -668l-20 -104l366 649l-8 90l-53 12l27 43l127 -26l120 26v-39l-55 -10l-94 -86l-512 -877l-49 652l20 98l-430 -752l-86 660l-33 289z" />
<glyph unicode="x" horiz-adv-x="800" d="M16 0l11 39l88 24l114 93l209 270l-135 438l-78 35l13 39l172 -8l153 16l-8 -39l-33 -6l-49 -65l74 -211l-10 -76l192 276l4 68l-41 8l17 43l114 -14l135 14l-2 -39l-45 -4l-116 -80l-236 -293l174 -458l49 -35l-4 -35l-188 10l-160 -10l4 23l68 47l10 69l-49 232l6 43 l-209 -271l-2 -86l43 -16l-14 -31l-133 2z" />
<glyph unicode="y" horiz-adv-x="835" d="M16 -391l109 102l55 -73l60 32l155 277l-104 844l-27 86l-51 22l12 41l148 -12l172 24l-4 -47l-64 -10l-39 -76l62 -608l-8 -86l333 655l-14 109l-55 6l26 57l127 -24l144 22l-6 -51l-89 -31l-73 -96l-625 -1147l-178 -121z" />
<glyph unicode="z" horiz-adv-x="772" d="M2 -12l670 854l88 30l-369 -14l-102 -65l-68 -144l-22 4l75 269l299 -7l357 15l-654 -832l-77 -45l376 29l134 78l90 168l39 -4l-144 -320l-446 8z" />
<glyph unicode="{" d="M281 604l8 84l108 -12l162 137l103 481l180 207l207 25l-15 -51l-149 -35l-105 -146l-106 -473l-119 -123l-154 -57l146 -51l43 -197l-86 -409l24 -140l129 -34l-14 -58l-143 25l-123 160l92 499l-68 160z" />
<glyph unicode="|" d="M299 -475l420 2046l72 -6l-414 -2044z" />
<glyph unicode="}" d="M109 -236l8 48l129 10l110 162l105 458l135 156l174 37l-158 37l-65 137l94 453l-45 184l-127 20l12 58l158 -23l119 -166l-107 -493l92 -152l119 -18l-16 -54l-154 -30l-121 -158l-120 -520l-179 -139z" />
<glyph unicode="~" horiz-adv-x="2895" d="M209 0v600h2v96h137v58h-37v180h37v63h-37v76h899v-94q-14 27 -49 27q-94 0 -94 -158q0 -156 98 -156q31 0 64 39v-35h49v377h766v-53h70v53h737v-1073h-2642zM211 754v180h39v-180h-39zM211 997v76h39v-76h-39zM268 160h123v86h-45v301h-78v-387zM371 823 q0 -131 94 -131q29 0 51 17q0 -47 -57 -47h-31v-62h43q113 12 113 145v252h-68v-186q0 -53 -41 -53q-39 0 -39 53v186h-65v-174zM422 160h76v73h26v-73h82v141l-53 246h-84l-47 -246v-141zM498 291v39l12 102h4l10 -102v-39h-26zM606 600h68v115q14 -25 49 -25q94 0 94 156 t-98 155q-29 0 -64 -40v36h-49v-397zM637 160h78v170h22v-170h84v155l-30 43v7l30 41v100l-22 41h-162v-387zM668 793v102q12 31 43 31q43 0 43 -78q0 -88 -45 -88q-29 0 -41 33zM715 393v84h22v-84h-22zM831 844q0 -156 111 -156q113 0 113 156q0 160 -113 160 q-111 0 -111 -160zM852 160h78v73h24v-73h78v141l-49 246h-84l-47 -246v-141zM899 844q0 84 43 84q45 0 45 -84q0 -82 -45 -82q-43 0 -43 82zM930 291v39l10 102h6l8 -102v-39h-24zM1065 160h162l22 43v127l-16 28v7l16 28v113l-22 41h-162v-387zM1130 846q0 88 46 88 q27 0 38 -33v-104q-12 -29 -40 -29q-43 0 -44 78zM1145 233v97h22v-97h-22zM1145 393v84h22v-84h-22zM1282 160h80v387h-80v-387zM1296 774q2 -86 93 -86q45 0 70.5 26.5t25.5 82.5h-31q-6 -39 -51 -39q-41 0 -41 28q0 37 41 37h20v37h-20q-41 0 -41 35q0 33 41 33 q35 0 51 -41h31v110h-31v-47q-23 53 -68 54q-88 0 -88 -89q0 -55 45 -73q-47 -18 -47 -68zM1393 160h131v86h-54v80h54v67h-54v72h54v82h-131v-387zM1507 696h90v58h-28v133q0 41 28 41q12 0 25 -13l23 68q-16 14 -35 16q-43 0 -64 -49v47h-39v-301zM1612 160h80v159h49v68 h-49v78h49v82h-129v-387zM1626 696h143v58h-38v125q0 47 38 47q31 0 31 -47v-183h105v58h-39v125q0 45 39 45q31 0 30 -45v-183h68v193q0 111 -96 110q-49 0 -64 -49q-18 49 -57 49q-35 0 -55 -49v47h-66v-243h-39v-58zM1774 203l20 -43h137l25 43v303l-23 41h-139l-20 -41 v-303zM1851 233v244h23v-244h-23zM1987 160h65v250h6l19 -250h118v387h-65v-250h-6l-23 250h-114v-387zM2013 934h31v-238h70v301h-101v-63zM2130 844q0 -154 104 -154q74 0 93 119h-33q-6 -47 -51 -47q-47 0 -48 82q0 84 48 84q47 0 51 -56h33v121h-33v-43q-25 53 -62 54 q-102 0 -102 -160zM2218 465h43v-305h80v305h43v82h-166v-82zM2406 203l23 -43h133l23 43v147l-27 43l-72 17v67h21v-49h78v78l-21 41h-135l-23 -41v-135l25 -41l76 -19v-78h-21v58h-80v-88z" />
<glyph unicode="&#xa1;" horiz-adv-x="585" d="M197 104l108 320l178 602l68 -2l-117 -606l-31 -328l-127 -131zM471 1313l158 153l84 -163l-156 -115z" />
<glyph unicode="&#xa2;" horiz-adv-x="739" d="M197 625l49 329l239 297l181 62l45 223l73 -6l-39 -189l21 7l154 -27l59 -102l-117 -97l-131 140l-153 -768l129 10l127 80l20 -19l-102 -112l-197 -74l-45 -234l-78 5l47 231l-151 31zM377 874l37 -260l94 -84l149 732h-59l-147 -146z" />
<glyph unicode="&#xa3;" horiz-adv-x="1085" d="M-39 57l143 138l129 -27l101 182l102 264l-166 17l9 35l192 28l217 441l244 278l272 39l109 -141l4 -84l-117 -99l-80 117l56 55l-39 103l-125 -29l-197 -252l-180 -405l215 -53l-19 -50l-243 11l-109 -246l-235 -266l90 49l414 -139l176 36l65 113l-67 74l102 108 l57 -131l-131 -207l-198 -108l-148 -10l-391 165l-180 -96z" />
<glyph unicode="&#xa4;" horiz-adv-x="1243" d="M37 414l37 131l119 -10l2 147l41 104l-117 -8l37 162l137 -10l39 102l235 279l318 133l366 16l144 -88l-72 -88l-8 45l-205 80l-303 -74l-254 -256l-64 -166l72 -4l469 9l-100 -125l-387 20l-97 -8l-34 -88l-17 -197l109 -8l209 10l-82 -100l-142 6l-102 -4l-2 -35 l143 -254l240 -112l203 36l170 158l53 -59l-49 -107l-215 -69l-268 -21l-297 125l-172 229l-3 103z" />
<glyph unicode="&#xa5;" horiz-adv-x="1144" d="M203 266l37 131l432 -32l356 32l-10 -137l-363 21zM285 631l36 162l406 -31l393 12l-24 -141l-387 33zM328 -6l24 63l76 17l100 121l88 409l-157 727l-99 49l17 50l182 -25l215 33l-4 -45l-65 -19l-48 -74l101 -550l-35 -74l55 53l352 539l-20 125l-74 4l8 37l181 -17 l194 21l-8 -45l-51 -7l-160 -124l-416 -605l-92 -409l27 -152l108 -49l-10 -47l-260 18z" />
<glyph unicode="&#xa6;" d="M289 -313l119 372l53 349l137 -13l-127 -362l-43 -373zM506 690l129 357l43 366l119 14l-105 -395l-53 -352z" />
<glyph unicode="&#xa7;" horiz-adv-x="688" d="M88 -53l23 239l30 -10l35 -168l107 -88l147 33l64 182l-62 131l-223 174l-10 191l102 160l160 65l24 -2l-129 104l-10 195l107 154l157 67l82 -2l135 -65l-26 -209l-33 6l-18 139l-95 84l-108 -29l-62 -116l23 -127l256 -250l12 -154l-102 -186l-164 -74l104 -106 l13 -156l-101 -182l-178 -78l-182 20zM336 659l24 -124l93 -91l125 27l40 119l-16 133l-96 84l-107 -27z" />
<glyph unicode="&#xa8;" d="M483 1606l133 141l89 -115l-121 -135zM860 1614l133 133l84 -121l-123 -119z" />
<glyph unicode="&#xa9;" horiz-adv-x="1734" d="M326 440l100 494l256 328l264 188l361 25l258 -164l127 -346l-43 -347l-148 -296l-284 -265l-289 -90l-240 21l-180 108l-109 197zM395 479l88 -227l207 -201l328 -22l305 184l217 240l80 309l-35 328l-117 245l-256 78l-229 -16l-209 -135l-131 -129l-160 -240zM618 518 l58 367l221 237l264 80l230 -74l-27 -135l-2 -125l-45 -14l-37 213l-92 61l-189 -18l-170 -199l-67 -268l43 -207l121 -112l153 26l183 195l34 73l25 -45l-115 -235l-192 -78l-256 33z" />
<glyph unicode="&#xaa;" horiz-adv-x="579" d="M248 952l65 131l314 138l-27 108l-113 31l-41 -25l9 -55l-76 -70l-57 58l92 108l225 90l104 -123l-86 -454l33 -68h41v-45l-59 -14l-103 4l-43 31l29 63l-143 -94l-127 25zM342 930l64 -94l67 2l88 67l39 242l29 45l-242 -135z" />
<glyph unicode="&#xab;" horiz-adv-x="802" d="M143 487l443 377l26 -22l-176 -238l-155 -117l106 -127l86 -210l-61 -54l-123 228zM461 475l438 389l35 -20l-164 -232l-172 -131l113 -125l75 -221l-36 -39z" />
<glyph unicode="&#xad;" horiz-adv-x="585" d="M193 453l34 149l199 -45l203 31l-45 -174l-154 35z" />
<glyph unicode="&#xae;" horiz-adv-x="1425" d="M217 434l94 459l240 301l246 176l333 23l238 -150l117 -323l-41 -320l-133 -276l-267 -244l-264 -84l-225 18l-164 101l-104 182zM285 471l80 -211l194 -186l303 -19l281 168l200 223l76 287l-28 303l-113 228l-238 71l-213 -12l-194 -129l-119 -117l-149 -225zM473 281 l4 51l55 8l70 61l113 568l-31 63l-70 -2l19 66l145 -6l219 12l177 -31l28 -176l-88 -137l-221 -51l80 -27l61 -76l6 -260l60 10l45 109l35 -4l-47 -152l-123 -33l-101 66l31 221l-63 109l-142 18l25 -39l-62 -266l99 -55l-23 -47l-135 32zM772 735l156 -6l110 78l47 108 l-53 117l-153 23l-60 -58z" />
<glyph unicode="&#xaf;" d="M475 1522l19 137l280 -23l262 35l-10 -143l-272 12z" />
<glyph unicode="&#xb0;" horiz-adv-x="569" d="M281 1055l47 225l139 133l209 37l112 -125l-22 -223l-117 -180l-248 -27zM362 1090l91 -125l157 51l109 205l-74 133l-127 -6l-115 -97z" />
<glyph unicode="&#xb2;" horiz-adv-x="630" d="M150 551v51l419 356l99 224l-29 125l-158 24l-131 -112l-41 26l183 164l163 37l136 -117l-58 -246l-198 -229l-275 -211l80 33l244 -6l73 37l78 96l29 -17l-135 -231l-203 18z" />
<glyph unicode="&#xb3;" horiz-adv-x="630" d="M207 705l104 88l43 -60l-18 -63l49 -56l115 4l106 121l19 156l-136 80l-147 -41l-12 24l282 152l68 133l-37 100l-141 9l-137 -117l-27 31l172 143l170 31l102 -54l11 -124l-74 -109l-205 -123l90 17l60 -27l73 -105l-14 -149l-92 -123l-160 -70l-180 -2z" />
<glyph unicode="&#xb4;" d="M705 1534l247 350l99 -102l-320 -277z" />
<glyph unicode="&#xb5;" horiz-adv-x="948" d="M-139 -260l182 358l270 658l33 116l146 5l-232 -533l-14 -184l153 -68l158 129l270 656l140 -13l-277 -696l58 -82l120 82l90 176l31 -37l-119 -239l-176 -95l-96 74l6 152l-117 -158l-151 -57l-133 67l-23 150l-151 -500l-125 -121z" />
<glyph unicode="&#xb6;" d="M283 911l10 287l262 262l363 23l225 47l-29 -103l-117 -34l-270 -1381l-109 -6l310 1387l-275 -4l103 -37l-264 -1248l-158 -139l-23 53l86 72l150 713l-76 -12z" />
<glyph unicode="&#xb8;" d="M168 -465l94 103l92 -103l90 51l-102 209l43 66l184 178l27 -12l-88 -78l-37 -51l76 -185l-23 -106l-162 -125l-120 -31z" />
<glyph unicode="&#xb9;" horiz-adv-x="632" d="M227 567l2 45h111l84 95l115 653l-131 49l18 47l147 -39l121 27l-170 -731l31 -88l111 -23l-25 -53z" />
<glyph unicode="&#xba;" horiz-adv-x="718" d="M250 938l29 250l225 215l235 37l193 -127l-29 -312l-192 -208l-254 -21zM360 950l115 -137l199 35l112 194l37 230l-37 82l-59 32l-180 -12l-154 -170z" />
<glyph unicode="&#xbb;" horiz-adv-x="802" d="M70 121l180 256l158 108l-115 152l-62 194l45 33l281 -385l-448 -387zM395 162l172 211l166 108l-98 131l-98 207l45 35l305 -383l-465 -367z" />
<glyph unicode="&#xbc;" horiz-adv-x="1497" d="M289 625l6 47l115 51l118 635l-120 28l18 70l125 -39l131 27l-152 -709l52 -55l69 -16l-26 -50zM319 10l553 711l566 747l47 -92l-570 -696l-532 -739zM956 297l506 541l54 -29l-66 -160l-49 -325l151 4l-28 -82l-164 -10l-31 -127l57 -62l56 -12l-15 -39h-305l-2 55 l86 6l43 82l19 113l-303 -6zM1057 334l291 -2l-41 45l73 295z" />
<glyph unicode="&#xbd;" horiz-adv-x="1497" d="M246 625l16 47l90 4l82 100l107 604l-121 19l-6 47l161 -23l99 11l-146 -684l13 -93l94 9l-8 -45l-207 10zM326 -6l579 756l514 735l66 -86l-549 -672l-551 -807zM924 23l422 391l69 235l-149 86l-156 -127l-18 39l176 152l192 -2l80 -133l-80 -224l-319 -295l-113 -53 l330 -10l125 147l33 9l-148 -244l-438 -29z" />
<glyph unicode="&#xbe;" horiz-adv-x="1497" d="M209 745l80 86l86 -34l-37 -54l72 -79l129 26l65 148l-74 147l-165 -27l-25 27l309 209l4 106l-80 66l-186 -98l-35 6l74 84l160 88l145 -6l37 -121l-66 -143l-206 -134l112 37l78 -41l47 -127l-63 -182l-125 -88l-201 -33zM309 -6l572 733l530 752l72 -74l-551 -698 l-557 -783zM942 231l21 56l489 542l51 -22l-110 -473l147 -2l-16 -80h-140l-38 -184l92 -35l18 -43l-346 -2l14 45l101 26l41 152l55 41zM1071 340h225l64 291l47 69z" />
<glyph unicode="&#xbf;" horiz-adv-x="892" d="M141 113l25 284l76 140l393 305l59 71l-6 105l-63 51l96 86l84 -113l-53 -141l-334 -295l-58 -76l-28 -264l131 -153l215 47l166 141l41 -22l-158 -191l-203 -125l-241 2zM625 1307l125 137l75 -115l-120 -123z" />
<glyph unicode="&#xc0;" horiz-adv-x="1243" d="M14 -6l13 57l88 12l100 119l717 1342l72 28l53 -841l73 -543l76 -111l72 -10l-27 -51l-231 10l-197 -12l-6 63l62 -6l82 109l-43 403l30 41h-461l7 -37l-185 -366l-2 -144l127 -18v-45l-211 22zM537 682l389 -16l-72 553l31 118zM887 1810l135 84l98 -364l-55 -19z" />
<glyph unicode="&#xc1;" horiz-adv-x="1243" d="M14 -6l13 57l88 12l100 119l717 1342l72 28l53 -841l73 -543l76 -111l72 -10l-27 -51l-231 10l-197 -12l-6 63l62 -6l82 109l-43 403l30 41h-461l7 -37l-185 -366l-2 -144l127 -18v-45l-211 22zM537 682l389 -16l-72 553l31 118zM805 1534l247 350l99 -102l-320 -277z " />
<glyph unicode="&#xc2;" horiz-adv-x="1243" d="M14 -6l13 57l88 12l100 119l717 1342l72 28l53 -841l73 -543l76 -111l72 -10l-27 -51l-231 10l-197 -12l-6 63l62 -6l82 109l-43 403l30 41h-461l7 -37l-185 -366l-2 -144l127 -18v-45l-211 22zM537 682l389 -16l-72 553l31 118zM739 1507l33 31l277 346l129 -362 l-48 -33l-124 176l36 96l-243 -295z" />
<glyph unicode="&#xc3;" horiz-adv-x="1243" d="M14 -6l13 57l88 12l100 119l717 1342l72 28l53 -841l73 -543l76 -111l72 -10l-27 -51l-231 10l-197 -12l-6 63l62 -6l82 109l-43 403l30 41h-461l7 -37l-185 -366l-2 -144l127 -18v-45l-211 22zM537 682l389 -16l-72 553l31 118zM612 1561l199 127l79 10l181 -80l114 6 l101 98l30 -30l-206 -170l-101 -13l-203 93l-169 -95z" />
<glyph unicode="&#xc4;" horiz-adv-x="1243" d="M14 -6l13 57l88 12l100 119l717 1342l72 28l53 -841l73 -543l76 -111l72 -10l-27 -51l-231 10l-197 -12l-6 63l62 -6l82 109l-43 403l30 41h-461l7 -37l-185 -366l-2 -144l127 -18v-45l-211 22zM537 682l389 -16l-72 553l31 118zM686 1606l133 141l89 -115l-121 -135z M1063 1614l133 133l84 -121l-123 -119z" />
<glyph unicode="&#xc5;" horiz-adv-x="1243" d="M14 -6l13 57l88 12l100 119l717 1342l72 28l53 -841l73 -543l76 -111l72 -10l-27 -51l-231 10l-197 -12l-6 63l62 -6l82 109l-43 403l30 41h-461l7 -37l-185 -366l-2 -144l127 -18v-45l-211 22zM537 682l389 -16l-72 553l31 118zM788 1610l37 178l106 104l168 29l88 -98 l-14 -176l-94 -144l-197 -20zM852 1636l73 -98l123 41l86 162l-57 104l-100 -4l-93 -78z" />
<glyph unicode="&#xc6;" horiz-adv-x="1777" d="M14 -6l13 57l88 12l100 119l965 1211h102l309 34l387 7l-65 -154l-27 -174l-39 -4l6 194l-133 80l-286 -24l-121 -580l248 10l131 86l57 125l39 -18l-78 -240l-29 -225l-53 -4l2 106l-2 9l-108 73h-265l33 -45l-96 -426l80 -149l96 -27l203 35l172 166l72 205l43 -23 l-70 -207l-115 -233l-882 -8l26 75l191 99l104 530l-407 -14l-158 -180l-238 -291l-2 -144l127 -18v-45l-211 22zM784 760l322 26l129 525l-117 -121z" />
<glyph unicode="&#xc7;" horiz-adv-x="1243" d="M193 315l2 367l137 350l235 279l318 133l366 16l193 -119l-21 -155l-26 -199l-51 10l2 168l-33 164l-205 80l-303 -74l-254 -256l-141 -362l-27 -328l143 -254l240 -112l203 36l225 209l92 187l39 -15l-182 -389l-215 -69l-268 -21l-297 125zM377 -473l94 103l92 -103 l90 51l-102 209l43 66l184 178l27 -12l-88 -78l-37 -51l76 -185l-23 -106l-162 -125l-120 -31z" />
<glyph unicode="&#xc8;" horiz-adv-x="1144" d="M59 -18l23 53l135 47l92 154l205 1009l-45 137h-92l16 58l467 -13l443 7l-66 -154l-27 -174l-39 -4l7 194l-134 80l-407 -16l63 -8l-120 -580l286 10l131 86l56 125l41 -18l-80 -240l-29 -225l-51 -4v106l-2 9l-107 73h-301l33 -45l-96 -426l80 -149l151 -27l201 35 l174 166l70 205l45 -23l-70 -207l-115 -233l-637 10zM762 1810l135 84l98 -364l-55 -19z" />
<glyph unicode="&#xc9;" horiz-adv-x="1144" d="M59 -18l23 53l135 47l92 154l205 1009l-45 137h-92l16 58l467 -13l443 7l-66 -154l-27 -174l-39 -4l7 194l-134 80l-407 -16l63 -8l-120 -580l286 10l131 86l56 125l41 -18l-80 -240l-29 -225l-51 -4v106l-2 9l-107 73h-301l33 -45l-96 -426l80 -149l151 -27l201 35 l174 166l70 205l45 -23l-70 -207l-115 -233l-637 10zM842 1534l247 350l99 -102l-320 -277z" />
<glyph unicode="&#xca;" horiz-adv-x="1144" d="M59 -18l23 53l135 47l92 154l205 1009l-45 137h-92l16 58l467 -13l443 7l-66 -154l-27 -174l-39 -4l7 194l-134 80l-407 -16l63 -8l-120 -580l286 10l131 86l56 125l41 -18l-80 -240l-29 -225l-51 -4v106l-2 9l-107 73h-301l33 -45l-96 -426l80 -149l151 -27l201 35 l174 166l70 205l45 -23l-70 -207l-115 -233l-637 10zM708 1507l33 31l277 346l129 -362l-48 -33l-124 176l36 96l-243 -295z" />
<glyph unicode="&#xcb;" horiz-adv-x="1144" d="M59 -18l23 53l135 47l92 154l205 1009l-45 137h-92l16 58l467 -13l443 7l-66 -154l-27 -174l-39 -4l7 194l-134 80l-407 -16l63 -8l-120 -580l286 10l131 86l56 125l41 -18l-80 -240l-29 -225l-51 -4v106l-2 9l-107 73h-301l33 -45l-96 -426l80 -149l151 -27l201 35 l174 166l70 205l45 -23l-70 -207l-115 -233l-637 10zM622 1606l133 141l89 -115l-121 -135zM999 1614l133 133l84 -121l-123 -119z" />
<glyph unicode="&#xcc;" horiz-adv-x="669" d="M72 -6l12 57l160 53l45 97l229 1087l-104 88l-60 10l29 66l256 -59l274 47l5 -47l-125 -35l-107 -150l-229 -1018l41 -120l110 -37l-10 -51l-274 47zM510 1810l135 84l98 -364l-55 -19z" />
<glyph unicode="&#xcd;" horiz-adv-x="669" d="M72 -6l12 57l160 53l45 97l229 1087l-104 88l-60 10l29 66l256 -59l274 47l5 -47l-125 -35l-107 -150l-229 -1018l41 -120l110 -37l-10 -51l-274 47zM609 1534l247 350l99 -102l-320 -277z" />
<glyph unicode="&#xce;" horiz-adv-x="669" d="M72 -6l12 57l160 53l45 97l229 1087l-104 88l-60 10l29 66l256 -59l274 47l5 -47l-125 -35l-107 -150l-229 -1018l41 -120l110 -37l-10 -51l-274 47zM444 1507l33 31l277 346l129 -362l-48 -33l-124 176l36 96l-243 -295z" />
<glyph unicode="&#xcf;" horiz-adv-x="669" d="M72 -6l12 57l160 53l45 97l229 1087l-104 88l-60 10l29 66l256 -59l274 47l5 -47l-125 -35l-107 -150l-229 -1018l41 -120l110 -37l-10 -51l-274 47zM397 1606l133 141l89 -115l-121 -135zM774 1614l133 133l84 -121l-123 -119z" />
<glyph unicode="&#xd0;" horiz-adv-x="1435" d="M80 -18l4 51l123 43l108 147l207 996l-39 155h-92l8 56l207 -9l189 29l204 2l275 -98l223 -244l29 -330l-123 -372l-283 -265l-291 -131l-270 -24l-217 18zM265 639l34 149l199 -45l203 31l-45 -174l-154 35zM481 168l133 -129l258 37l215 160l146 243l78 346l-37 303 l-195 179l-237 82l-180 -7l45 -30l-226 -1030v-154z" />
<glyph unicode="&#xd1;" horiz-adv-x="1437" d="M-12 -29l8 45l156 52l133 190l198 934l-73 174l-134 16l3 45l153 11l156 14l592 -1059l37 -102l178 917l-37 162l-144 29l17 53l246 -25l219 19v-49l-119 -23l-102 -149l-248 -1127l-15 -174l-645 1114l-26 150l-193 -957l66 -141l92 -37l-12 -59l-238 12zM649 1561 l199 127l79 10l181 -80l114 6l101 98l30 -30l-206 -170l-101 -13l-203 93l-169 -95z" />
<glyph unicode="&#xd2;" horiz-adv-x="1439" d="M207 717l47 147l203 371l358 205l373 12l276 -172l90 -362l-86 -408l-208 -320l-326 -194l-289 -23l-268 101l-166 223zM406 393l131 -289l256 -57l297 143l172 291l92 383l-43 324l-97 170l-186 51l-201 -51l-231 -193l-174 -426zM858 1810l135 84l98 -364l-55 -19z" />
<glyph unicode="&#xd3;" horiz-adv-x="1439" d="M207 717l47 147l203 371l358 205l373 12l276 -172l90 -362l-86 -408l-208 -320l-326 -194l-289 -23l-268 101l-166 223zM406 393l131 -289l256 -57l297 143l172 291l92 383l-43 324l-97 170l-186 51l-201 -51l-231 -193l-174 -426zM926 1534l247 350l99 -102l-320 -277z " />
<glyph unicode="&#xd4;" horiz-adv-x="1439" d="M207 717l47 147l203 371l358 205l373 12l276 -172l90 -362l-86 -408l-208 -320l-326 -194l-289 -23l-268 101l-166 223zM406 393l131 -289l256 -57l297 143l172 291l92 383l-43 324l-97 170l-186 51l-201 -51l-231 -193l-174 -426zM821 1507l33 31l277 346l129 -362 l-48 -33l-124 176l36 96l-243 -295z" />
<glyph unicode="&#xd5;" horiz-adv-x="1439" d="M207 717l47 147l203 371l358 205l373 12l276 -172l90 -362l-86 -408l-208 -320l-326 -194l-289 -23l-268 101l-166 223zM406 393l131 -289l256 -57l297 143l172 291l92 383l-43 324l-97 170l-186 51l-201 -51l-231 -193l-174 -426zM670 1561l199 127l79 10l181 -80l114 6 l101 98l30 -30l-206 -170l-101 -13l-203 93l-169 -95z" />
<glyph unicode="&#xd6;" horiz-adv-x="1439" d="M207 717l47 147l203 371l358 205l373 12l276 -172l90 -362l-86 -408l-208 -320l-326 -194l-289 -23l-268 101l-166 223zM406 393l131 -289l256 -57l297 143l172 291l92 383l-43 324l-97 170l-186 51l-201 -51l-231 -193l-174 -426zM762 1606l133 141l89 -115l-121 -135z M1139 1614l133 133l84 -121l-123 -119z" />
<glyph unicode="&#xd8;" horiz-adv-x="1439" d="M207 717l47 147l203 371l358 205l373 12l276 -172l90 -362l-86 -408l-208 -320l-326 -194l-289 -23l-268 101l-166 223zM406 393l12 -33l450 377l430 469l-84 152l-186 51l-201 -51l-231 -193l-174 -426zM463 266l74 -162l256 -57l297 143l172 291l92 383l-33 250 l-434 -416z" />
<glyph unicode="&#xd9;" horiz-adv-x="1435" d="M301 293l188 932l-40 139l-93 18l2 45l267 -12l254 25l-17 -58l-98 -12l-111 -151l-186 -881l106 -219l256 -33l238 66l158 221l172 831l-37 150l-98 43l18 37l217 -11l186 11l-12 -48l-76 -22l-92 -137l-137 -631l-123 -336l-231 -237l-299 -58l-287 68zM936 1810 l135 84l98 -364l-55 -19z" />
<glyph unicode="&#xda;" horiz-adv-x="1435" d="M301 293l188 932l-40 139l-93 18l2 45l267 -12l254 25l-17 -58l-98 -12l-111 -151l-186 -881l106 -219l256 -33l238 66l158 221l172 831l-37 150l-98 43l18 37l217 -11l186 11l-12 -48l-76 -22l-92 -137l-137 -631l-123 -336l-231 -237l-299 -58l-287 68zM990 1534 l247 350l99 -102l-320 -277z" />
<glyph unicode="&#xdb;" horiz-adv-x="1435" d="M301 293l188 932l-40 139l-93 18l2 45l267 -12l254 25l-17 -58l-98 -12l-111 -151l-186 -881l106 -219l256 -33l238 66l158 221l172 831l-37 150l-98 43l18 37l217 -11l186 11l-12 -48l-76 -22l-92 -137l-137 -631l-123 -336l-231 -237l-299 -58l-287 68zM850 1507l33 31 l277 346l129 -362l-48 -33l-124 176l36 96l-243 -295z" />
<glyph unicode="&#xdc;" horiz-adv-x="1435" d="M301 293l188 932l-40 139l-93 18l2 45l267 -12l254 25l-17 -58l-98 -12l-111 -151l-186 -881l106 -219l256 -33l238 66l158 221l172 831l-37 150l-98 43l18 37l217 -11l186 11l-12 -48l-76 -22l-92 -137l-137 -631l-123 -336l-231 -237l-299 -58l-287 68zM798 1606 l133 141l89 -115l-121 -135zM1175 1614l133 133l84 -121l-123 -119z" />
<glyph unicode="&#xdd;" horiz-adv-x="1144" d="M328 -6l24 63l76 17l100 121l88 409l-157 727l-99 49l17 50l182 -25l215 33l-4 -45l-65 -19l-48 -74l101 -550l-35 -74l55 53l352 539l-20 125l-74 4l8 37l181 -17l194 21l-8 -45l-51 -7l-160 -124l-416 -605l-92 -409l27 -152l108 -49l-10 -47l-260 18zM832 1534 l247 350l99 -102l-320 -277z" />
<glyph unicode="&#xde;" horiz-adv-x="1050" d="M66 -10l26 57l113 35l80 129l217 983l-29 154l-98 38l16 41l246 -18l264 29l-6 -49l-158 -52l-67 -127l-37 -77l98 14l244 -31l180 -192l-29 -271l-149 -217l-272 -108l-240 -25l-33 -127l60 -74l131 -39l-33 -69l-234 29zM477 360l92 -10l172 58l154 120l74 244l-41 197 l-193 110l-149 -12l43 -25z" />
<glyph unicode="&#xdf;" horiz-adv-x="952" d="M43 -10l10 51l74 6l72 103l178 866l84 209l305 258l195 26l124 -161l-30 -185l-250 -225l-33 -123l217 -397l-45 -213l-176 -187l-152 -36l-53 -5l-55 86l98 105l74 -105l82 27l74 127l12 145l-223 318l28 139l66 105l178 194l41 166l-47 119l-103 47l-192 -184 l-104 -314l-173 -856l68 -61l74 4l-4 -55l-226 28z" />
<glyph unicode="&#xe0;" horiz-adv-x="849" d="M145 184l43 373l211 291l201 135l131 -6l162 -62l115 -12l-19 -41l-88 -43l-143 -667l33 -84l57 26l4 -57l-100 -19l-179 -53l41 111l31 129l-96 -109l-176 -119l-88 35zM311 479l19 -272l90 -98l137 47l133 135l-35 -4l103 461l10 108l-166 64l-160 -111zM598 1325 l135 84l98 -364l-55 -19z" />
<glyph unicode="&#xe1;" horiz-adv-x="845" d="M145 184l43 373l211 291l201 135l131 -6l162 -62l115 -12l-19 -41l-88 -43l-143 -667l33 -84l57 26l4 -57l-100 -19l-179 -53l41 111l31 129l-96 -109l-176 -119l-88 35zM311 479l19 -272l90 -98l137 47l133 135l-35 -4l103 461l10 108l-166 64l-160 -111zM529 1049 l247 350l99 -102l-320 -277z" />
<glyph unicode="&#xe2;" horiz-adv-x="837" d="M145 184l43 373l211 291l201 135l131 -6l162 -62l115 -12l-19 -41l-88 -43l-143 -667l33 -84l57 26l4 -57l-100 -19l-179 -53l41 111l31 129l-96 -109l-176 -119l-88 35zM311 479l19 -272l90 -98l137 47l133 135l-35 -4l103 461l10 108l-166 64l-160 -111zM444 1022 l33 31l277 346l129 -362l-48 -33l-124 176l36 96l-243 -295z" />
<glyph unicode="&#xe3;" horiz-adv-x="837" d="M145 184l43 373l211 291l201 135l131 -6l162 -62l115 -12l-19 -41l-88 -43l-143 -667l33 -84l57 26l4 -57l-100 -19l-179 -53l41 111l31 129l-96 -109l-176 -119l-88 35zM311 479l19 -272l90 -98l137 47l133 135l-35 -4l103 461l10 108l-166 64l-160 -111zM352 1076 l199 127l79 10l181 -80l114 6l101 98l30 -30l-206 -170l-101 -13l-203 93l-169 -95z" />
<glyph unicode="&#xe4;" horiz-adv-x="845" d="M145 184l43 373l211 291l201 135l131 -6l162 -62l115 -12l-19 -41l-88 -43l-143 -667l33 -84l57 26l4 -57l-100 -19l-179 -53l41 111l31 129l-96 -109l-176 -119l-88 35zM311 479l19 -272l90 -98l137 47l133 135l-35 -4l103 461l10 108l-166 64l-160 -111zM368 1121 l133 141l89 -115l-121 -135zM745 1129l133 133l84 -121l-123 -119z" />
<glyph unicode="&#xe5;" horiz-adv-x="772" d="M145 184l43 373l211 291l201 135l131 -6l162 -62l115 -12l-19 -41l-88 -43l-143 -667l33 -84l57 26l4 -57l-100 -19l-179 -53l41 111l31 129l-96 -109l-176 -119l-88 35zM311 479l19 -272l90 -98l137 47l133 135l-35 -4l103 461l10 108l-166 64l-160 -111zM500 1125 l37 178l106 104l168 29l88 -98l-14 -176l-94 -144l-197 -20zM564 1151l73 -98l123 41l86 162l-57 104l-100 -4l-93 -78z" />
<glyph unicode="&#xe6;" horiz-adv-x="1259" d="M80 184l43 373l211 291l198 135l134 -6l161 -62l99 -12l92 43l182 -14l115 -115v-268l-551 -57l-19 -91l-14 -200l162 -119l227 51l113 127l22 -51l-219 -195l-256 -47l-118 103l-35 -103l-152 17l74 92l31 129l-97 -109l-178 -119l-88 35zM244 479l20 -272l90 -98 l138 47l131 135l-35 -4l102 461l12 108l-167 64l-158 -111zM780 545l379 61l10 209l-118 88l-111 -41l-76 -84z" />
<glyph unicode="&#xe7;" horiz-adv-x="739" d="M113 -465l94 103l92 -103l90 51l-102 209l43 66l184 178l27 -12l-88 -78l-37 -51l76 -185l-23 -106l-162 -125l-120 -31zM115 242l49 329l239 297l281 97l154 -27l61 -102l-117 -97l-116 140h-150l-147 -146l-74 -241l37 -261l141 -122l154 12l125 80l20 -19l-102 -112 l-217 -82l-207 41z" />
<glyph unicode="&#xe8;" horiz-adv-x="770" d="M111 354l118 336l195 211l129 62l180 -17l117 -115l-2 -268l-621 -69l68 -23l-16 -35l38 -194l160 -133l178 41l115 129l25 -50l-224 -200l-176 -45l-200 79zM311 559l398 62l10 208l-119 89l-125 -39l-90 -86zM512 1325l135 84l98 -364l-55 -19z" />
<glyph unicode="&#xe9;" horiz-adv-x="770" d="M111 354l118 336l195 211l129 62l180 -17l117 -115l-2 -268l-621 -69l68 -23l-16 -35l38 -194l160 -133l178 41l115 129l25 -50l-224 -200l-176 -45l-200 79zM311 559l398 62l10 208l-119 89l-125 -39l-90 -86zM480 1049l247 350l99 -102l-320 -277z" />
<glyph unicode="&#xea;" horiz-adv-x="770" d="M111 354l118 336l195 211l129 62l180 -17l117 -115l-2 -268l-621 -69l68 -23l-16 -35l38 -194l160 -133l178 41l115 129l25 -50l-224 -200l-176 -45l-200 79zM311 559l398 62l10 208l-119 89l-125 -39l-90 -86zM399 1022l33 31l277 346l129 -362l-48 -33l-124 176l36 96 l-243 -295z" />
<glyph unicode="&#xeb;" horiz-adv-x="770" d="M111 354l118 336l195 211l129 62l180 -17l117 -115l-2 -268l-621 -69l68 -23l-16 -35l38 -194l160 -133l178 41l115 129l25 -50l-224 -200l-176 -45l-200 79zM311 559l398 62l10 208l-119 89l-125 -39l-90 -86zM342 1121l133 141l89 -115l-121 -135zM719 1129l133 133 l84 -121l-123 -119z" />
<glyph unicode="&#xec;" horiz-adv-x="452" d="M43 0l20 53l80 10l70 105l104 565l-49 88l-39 -12l-4 45l146 47l133 74l28 -25l-200 -805l45 -88l45 -34l-12 -39l-166 26zM348 1325l135 84l98 -364l-55 -19z" />
<glyph unicode="&#xed;" horiz-adv-x="452" d="M43 0l20 53l80 10l70 105l104 565l-49 88l-39 -12l-4 45l146 47l133 74l28 -25l-200 -805l45 -88l45 -34l-12 -39l-166 26zM332 1049l247 350l99 -102l-320 -277z" />
<glyph unicode="&#xee;" horiz-adv-x="452" d="M43 0l20 53l80 10l70 105l104 565l-49 88l-39 -12l-4 45l146 47l133 74l28 -25l-200 -805l45 -88l45 -34l-12 -39l-166 26zM221 1022l33 31l277 346l129 -362l-48 -33l-124 176l36 96l-243 -295z" />
<glyph unicode="&#xef;" horiz-adv-x="452" d="M43 0l20 53l80 10l70 105l104 565l-49 88l-39 -12l-4 45l146 47l133 74l28 -25l-200 -805l45 -88l45 -34l-12 -39l-166 26zM180 1121l133 141l89 -115l-121 -135zM557 1129l133 133l84 -121l-123 -119z" />
<glyph unicode="&#xf0;" horiz-adv-x="913" d="M104 324l103 333l254 258l241 72l152 -92l-119 330l-225 -168l-51 59l243 146l-122 118l-78 2l-2 39l116 54l101 55l106 -187l189 173l49 -72l-223 -144l63 -120l103 -381l-37 -359l-246 -360l-275 -107l-249 74zM295 459l37 -275l121 -133l149 17l115 127l96 270l14 350 l-114 103l-170 -25l-66 -33l-74 -92z" />
<glyph unicode="&#xf1;" horiz-adv-x="940" d="M57 39l64 24l72 103l120 567l-47 86l-24 -10l-6 35l139 45l119 86l20 -23l-51 -155l139 98l240 74l135 -101l4 -198l-127 -545l43 -78l23 -12l-9 -41l-151 18l-172 -22l4 51l67 16l68 88l111 527l-54 170l-143 10l-252 -117l55 4l-127 -600l37 -86l68 -14l-12 -33l-195 4 l-154 -6zM389 1076l199 127l79 10l181 -80l114 6l101 98l30 -30l-206 -170l-101 -13l-203 93l-169 -95z" />
<glyph unicode="&#xf2;" horiz-adv-x="956" d="M119 211l24 283l174 325l258 131l222 -4l88 -28l125 -121l22 -256l-102 -287l-185 -201l-253 -65l-238 45zM270 354l49 -233l140 -88l170 26l139 187l115 315l-19 238l-116 96l-179 -6l-184 -178zM555 1325l135 84l98 -364l-55 -19z" />
<glyph unicode="&#xf3;" horiz-adv-x="956" d="M119 211l24 283l174 325l258 131l222 -4l88 -28l125 -121l22 -256l-102 -287l-185 -201l-253 -65l-238 45zM270 354l49 -233l140 -88l170 26l139 187l115 315l-19 238l-116 96l-179 -6l-184 -178zM574 1049l247 350l99 -102l-320 -277z" />
<glyph unicode="&#xf4;" horiz-adv-x="956" d="M119 211l24 283l174 325l258 131l222 -4l88 -28l125 -121l22 -256l-102 -287l-185 -201l-253 -65l-238 45zM270 354l49 -233l140 -88l170 26l139 187l115 315l-19 238l-116 96l-179 -6l-184 -178zM485 1022l33 31l277 346l129 -362l-48 -33l-124 176l36 96l-243 -295z " />
<glyph unicode="&#xf5;" horiz-adv-x="956" d="M119 211l24 283l174 325l258 131l222 -4l88 -28l125 -121l22 -256l-102 -287l-185 -201l-253 -65l-238 45zM270 354l49 -233l140 -88l170 26l139 187l115 315l-19 238l-116 96l-179 -6l-184 -178zM375 1076l199 127l79 10l181 -80l114 6l101 98l30 -30l-206 -170 l-101 -13l-203 93l-169 -95z" />
<glyph unicode="&#xf6;" horiz-adv-x="956" d="M119 211l24 283l174 325l258 131l222 -4l88 -28l125 -121l22 -256l-102 -287l-185 -201l-253 -65l-238 45zM270 354l49 -233l140 -88l170 26l139 187l115 315l-19 238l-116 96l-179 -6l-184 -178zM432 1121l133 141l89 -115l-121 -135zM809 1129l133 133l84 -121 l-123 -119z" />
<glyph unicode="&#xf8;" horiz-adv-x="956" d="M119 211l24 283l174 325l258 131l222 -4l88 -28l125 -121l22 -256l-102 -287l-185 -201l-253 -65l-238 45zM270 354l25 -116l321 278l246 295l-114 84l-179 -6l-184 -178zM307 168l12 -47l140 -88l170 26l139 187l115 315l-13 144l-249 -224z" />
<glyph unicode="&#xf9;" horiz-adv-x="948" d="M190 96l52 373l67 317l-41 78l-41 19l-2 55l131 -14l133 28l-143 -684l66 -170h151l174 109l-24 24l114 562l-34 75l-70 15l2 51l137 -12l168 28l-108 -440l-82 -375l39 -49l59 12l-16 -51l-121 -8l-139 -57l28 161l-168 -108l-186 -41zM569 1325l135 84l98 -364l-55 -19 z" />
<glyph unicode="&#xfa;" horiz-adv-x="948" d="M190 96l52 373l67 317l-41 78l-41 19l-2 55l131 -14l133 28l-143 -684l66 -170h151l174 109l-24 24l114 562l-34 75l-70 15l2 51l137 -12l168 28l-108 -440l-82 -375l39 -49l59 12l-16 -51l-121 -8l-139 -57l28 161l-168 -108l-186 -41zM560 1049l247 350l99 -102 l-320 -277z" />
<glyph unicode="&#xfb;" horiz-adv-x="948" d="M190 96l52 373l67 317l-41 78l-41 19l-2 55l131 -14l133 28l-143 -684l66 -170h151l174 109l-24 24l114 562l-34 75l-70 15l2 51l137 -12l168 28l-108 -440l-82 -375l39 -49l59 12l-16 -51l-121 -8l-139 -57l28 161l-168 -108l-186 -41zM452 1022l33 31l277 346l129 -362 l-48 -33l-124 176l36 96l-243 -295z" />
<glyph unicode="&#xfc;" horiz-adv-x="948" d="M190 96l52 373l67 317l-41 78l-41 19l-2 55l131 -14l133 28l-143 -684l66 -170h151l174 109l-24 24l114 562l-34 75l-70 15l2 51l137 -12l168 28l-108 -440l-82 -375l39 -49l59 12l-16 -51l-121 -8l-139 -57l28 161l-168 -108l-186 -41zM413 1121l133 141l89 -115 l-121 -135zM790 1129l133 133l84 -121l-123 -119z" />
<glyph unicode="&#xfd;" horiz-adv-x="835" d="M16 -391l109 102l55 -73l60 32l155 277l-104 844l-27 86l-51 22l12 41l148 -12l172 24l-4 -47l-64 -10l-39 -76l62 -608l-8 -86l333 655l-14 109l-55 6l26 57l127 -24l144 22l-6 -51l-89 -31l-73 -96l-625 -1147l-178 -121zM560 1049l247 350l99 -102l-320 -277z" />
<glyph unicode="&#xfe;" horiz-adv-x="954" d="M-90 -590l4 58l100 4l72 120l334 1692l-64 96l6 60l123 16l113 76l27 -37l-191 -676l279 139l250 -57l77 -264l-98 -344l-190 -203l-205 -90l-174 -23l-97 64l15 -76l-103 -405l33 -86l146 -19l-13 -57l-219 39zM358 324l31 -232l137 -51l172 98l131 217l37 291l-98 184 l-184 23l-195 -109l53 -2z" />
<glyph unicode="&#xff;" horiz-adv-x="835" d="M16 -391l109 102l55 -73l60 32l155 277l-104 844l-27 86l-51 22l12 41l148 -12l172 24l-4 -47l-64 -10l-39 -76l62 -608l-8 -86l333 655l-14 109l-55 6l26 57l127 -24l144 22l-6 -51l-89 -31l-73 -96l-625 -1147l-178 -121zM393 1121l133 141l89 -115l-121 -135z M770 1129l133 133l84 -121l-123 -119z" />
<glyph unicode="&#x152;" horiz-adv-x="1734" d="M195 535l139 507l276 287l371 111l653 -19l287 25l-47 -127l-39 -176l-53 -10l18 112l-137 119l-389 2l69 -25l-129 -561h222l137 62l76 139l45 12l-92 -260l-25 -235l-37 8l6 92l-96 100h-324l76 -34l-100 -488l112 -129l218 6l208 142l84 211l58 -11l-162 -391l-625 2 l-368 -10l-320 172zM399 602l23 -317l213 -222l182 -16l113 92l133 578l137 663l-182 13l-219 -64l-297 -313z" />
<glyph unicode="&#x153;" horiz-adv-x="1466" d="M109 209l30 289l166 331l240 136l205 -4l77 -33l115 -125l2 -58l143 156l132 62l178 -17l119 -115l-3 -268l-567 -55l17 -29l-21 -43l39 -194l164 -133l174 41l113 124l24 -51l-217 -194l-178 -45l-203 79l-39 140l-133 -156l-240 -67l-213 45zM252 352l39 -237l131 -90 l151 28l134 189l112 323l-12 240l-105 100l-161 -6l-176 -180zM993 567l367 54l8 208l-117 89l-110 -39l-78 -86z" />
<glyph unicode="&#x178;" horiz-adv-x="1144" d="M328 -6l24 63l76 17l100 121l88 409l-157 727l-99 49l17 50l182 -25l215 33l-4 -45l-65 -19l-48 -74l101 -550l-35 -74l55 53l352 539l-20 125l-74 4l8 37l181 -17l194 21l-8 -45l-51 -7l-160 -124l-416 -605l-92 -409l27 -152l108 -49l-10 -47l-260 18zM612 1606 l133 141l89 -115l-121 -135zM989 1614l133 133l84 -121l-123 -119z" />
<glyph unicode="&#x2c6;" d="M524 1507l33 31l277 346l129 -362l-48 -33l-124 176l36 96l-243 -295z" />
<glyph unicode="&#x2dc;" d="M424 1561l199 127l79 10l181 -80l114 6l101 98l30 -30l-206 -170l-101 -13l-203 93l-169 -95z" />
<glyph unicode="&#x2000;" horiz-adv-x="960" />
<glyph unicode="&#x2001;" horiz-adv-x="1921" />
<glyph unicode="&#x2002;" horiz-adv-x="960" />
<glyph unicode="&#x2003;" horiz-adv-x="1921" />
<glyph unicode="&#x2004;" horiz-adv-x="640" />
<glyph unicode="&#x2005;" horiz-adv-x="480" />
<glyph unicode="&#x2006;" horiz-adv-x="320" />
<glyph unicode="&#x2007;" horiz-adv-x="320" />
<glyph unicode="&#x2008;" horiz-adv-x="240" />
<glyph unicode="&#x2009;" horiz-adv-x="384" />
<glyph unicode="&#x200a;" horiz-adv-x="106" />
<glyph unicode="&#x2010;" horiz-adv-x="585" d="M193 453l34 149l199 -45l203 31l-45 -174l-154 35z" />
<glyph unicode="&#x2011;" horiz-adv-x="585" d="M193 453l34 149l199 -45l203 31l-45 -174l-154 35z" />
<glyph unicode="&#x2012;" horiz-adv-x="585" d="M193 453l34 149l199 -45l203 31l-45 -174l-154 35z" />
<glyph unicode="&#x2013;" d="M88 430l27 137l430 -32l407 20l-10 -119l-393 10z" />
<glyph unicode="&#x2014;" horiz-adv-x="1734" d="M88 418l41 155l956 -18l738 8l-15 -127l-751 23z" />
<glyph unicode="&#x2018;" horiz-adv-x="387" d="M276 1143l144 260l160 76l108 -6l-14 -35l-131 -17l-144 -143l-8 -156l53 -61l56 29l55 -113l-98 -109l-129 56z" />
<glyph unicode="&#x2019;" horiz-adv-x="387" d="M238 907l194 84l80 197l-47 106l-62 -10l-77 96l166 136l110 -127l-4 -261l-143 -182l-211 -74z" />
<glyph unicode="&#x201a;" horiz-adv-x="387" d="M-53 -389l16 55l109 2l149 133l31 158l-62 92l-59 -28l-84 92l119 116l164 -112l-4 -240l-113 -164l-143 -82z" />
<glyph unicode="&#x201c;" horiz-adv-x="763" d="M276 1169l111 195l158 92l117 17v-43l-127 -25l-115 -80l-35 -192l59 -86l58 36l51 -106l-104 -119l-152 88zM645 1083l57 220l183 141l157 24l-18 -34l-133 -29l-109 -117l-14 -129l78 -123l55 54l49 -119l-100 -107l-125 31z" />
<glyph unicode="&#x201d;" horiz-adv-x="763" d="M238 877l4 61l67 -16l199 139l-6 223l-56 19l-47 -19l-61 98l123 115l131 -98l20 -213l-110 -211l-156 -82zM588 883l18 51l74 -6l203 139l-43 246l-70 -25l-76 88l127 137l172 -153l-26 -238l-125 -176l-162 -67z" />
<glyph unicode="&#x201e;" horiz-adv-x="763" d="M-37 -389l8 43l107 18l145 150l21 160l-62 53l-41 -19l-86 88l138 132l153 -156l-6 -182l-117 -185l-168 -96zM342 -373l8 45l105 4l161 179l9 116l-62 76l-63 -14l-76 69l133 134l164 -177l-14 -180l-142 -207l-168 -57z" />
<glyph unicode="&#x2022;" horiz-adv-x="1021" d="M401 596l54 289l207 176l182 6l96 -190l-29 -213l-186 -193l-213 -8z" />
<glyph unicode="&#x2026;" horiz-adv-x="1734" d="M195 86l149 150l72 -140l-135 -135zM760 104l170 138l82 -152l-148 -129zM1339 102l162 156l74 -149l-133 -132z" />
<glyph unicode="&#x202f;" horiz-adv-x="384" />
<glyph unicode="&#x2039;" horiz-adv-x="481" d="M119 475l448 377l43 -14l-168 -220l-196 -139l129 -94l90 -250l-49 -43z" />
<glyph unicode="&#x203a;" horiz-adv-x="481" d="M68 139l180 223l153 119l-102 117l-86 217l49 37l287 -387l-447 -363z" />
<glyph unicode="&#x205f;" horiz-adv-x="480" />
<glyph unicode="&#x20ac;" horiz-adv-x="1243" d="M37 414l37 131l119 -10l2 147l41 104l-117 -8l37 162l137 -10l39 102l235 279l318 133l366 16l144 -88l-72 -88l-8 45l-205 80l-303 -74l-254 -256l-64 -166l72 -4l469 9l-100 -125l-387 20l-97 -8l-34 -88l-17 -197l109 -8l209 10l-82 -100l-142 6l-102 -4l-2 -35 l143 -254l240 -112l203 36l170 158l53 -59l-49 -107l-215 -69l-268 -21l-297 125l-172 229l-3 103z" />
<glyph unicode="&#x2122;" horiz-adv-x="1425" d="M475 1288l66 164l153 -8l203 12l-10 -168l-43 -4l8 86l-55 43l-82 4l18 -35l-90 -397l10 -51l49 4l-16 -45l-90 25l-100 -11l4 33l39 -10l34 47l82 432l-51 4l-47 -37l-45 -96zM848 901l6 33h41l45 43l86 371l-2 57l-43 12l-6 39l86 -12l65 8l33 -375l-12 -69l229 444 l39 -14l92 2l-6 -35l-31 8l-26 -39l-101 -387l15 -53l61 6l-10 -41l-100 23l-115 -27l4 43l57 -4l39 70l86 382l-254 -481l-34 2l-29 467l-82 -354l-2 -76l65 -4l3 -41z" />
<glyph unicode="&#x25fc;" horiz-adv-x="942" d="M0 0v942h942v-942h-942z" />
</font>
</defs>
</svg>
