<?xml version="1.0" standalone="no"?>
<!DOCTYPE svg PUBLIC "-//W3C//DTD SVG 1.1//EN" "http://www.w3.org/Graphics/SVG/1.1/DTD/svg11.dtd" >
<svg xmlns="http://www.w3.org/2000/svg" xmlns:xlink="http://www.w3.org/1999/xlink" version="1.1">
<metadata></metadata>
<defs>
<font id="beryliumregular" horiz-adv-x="964" >
<font-face units-per-em="2048" ascent="1638" descent="-410" />
<missing-glyph horiz-adv-x="500" />
<glyph horiz-adv-x="0" />
<glyph unicode="&#xd;" horiz-adv-x="653" />
<glyph unicode="!" horiz-adv-x="382" d="M63 102l121 121l119 -127l-119 -137zM125 1348l98 120l113 -114l-53 -469l-35 -490h-60l-16 477z" />
<glyph unicode="&#x22;" horiz-adv-x="636" d="M61 1366l109 129l90 -113l-41 -217l-29 -305h-53l-16 316zM367 1389l116 141l88 -166l-49 -201l-43 -309l-45 6l-6 309z" />
<glyph unicode="#" horiz-adv-x="1284" d="M98 547l15 96l139 -14l168 18l84 303l-154 -6l-145 -14l18 110l164 -18l141 8l127 438l43 -34h52l-179 -418h142l143 14l80 230l47 198l35 -35l74 17l-88 -185l-89 -237l164 12l135 21l-8 -129l-127 22l-180 -4l-106 -307l161 10l136 6l-7 -121l-106 39l-213 -24 l-105 -332l-34 -160l-43 27l-58 18l183 455l-273 -12l-82 -256l-51 -224l-96 62l184 444l-170 -8zM457 637l276 -8l76 252l53 65l-151 4l-136 4z" />
<glyph unicode="$" horiz-adv-x="1062" d="M88 465l37 -2l49 -131l135 -223l168 -52l55 2l-4 594l-32 -12l-203 141l-133 275l71 227l164 125l140 29l-3 137l66 -4l-18 -137h163l170 -82l-30 -297l-45 -8l-17 163l-121 154l-114 22l8 -555l237 -155l125 -258l-22 -180l-139 -168l-213 -86l6 -168l-68 -6l12 190 h-167l-234 86l-22 213zM326 1067l90 -143l121 -88l6 546l-103 -28l-108 -99zM582 57l108 23l84 102l21 125l-62 205l-147 100z" />
<glyph unicode="%" horiz-adv-x="1712" d="M82 1026l59 274l156 127l133 25l184 -53l144 -258l-6 -273l-99 -180l-125 -92l4 16l-196 13l-199 174zM303 977l51 -279l86 -41l119 95l21 268l-21 293l-113 90l-67 -14l-76 -121v-291zM342 -4l469 709l428 780l102 -88l-458 -703l-424 -792zM977 561l90 219l184 41 l162 -22l174 -203l19 -281l-68 -241l-168 -90l-235 39l-156 235zM1110 313l53 -209l97 -77l137 53l71 254l-32 280l-50 144l-157 -19l-103 -155z" />
<glyph unicode="&#x26;" horiz-adv-x="1601" d="M92 309l23 254l161 182l187 140l-78 -17l-125 140l-37 180l66 155l178 117l240 2l143 -119l45 -186l-90 -153l-148 -93l-26 -26l370 -426l140 252l18 125l-72 57l-12 51l187 -37l280 17l-10 -41l-135 -31l-205 -180l-180 -293l39 16l178 -227l178 -86l162 4l-2 -80 l-246 -33l-217 23l-170 285l-123 -160l-207 -133l-182 -11l-195 76zM244 393l137 -194l184 -90l213 63l125 131l-446 526l-103 -67l-98 -144zM367 1262l49 -168l170 -170l98 45l78 178l-51 184l-162 78l-125 -43z" />
<glyph unicode="'" horiz-adv-x="327" d="M63 1413l105 78l90 -78l-51 -242l-17 -294l-51 -13l-20 316z" />
<glyph unicode="(" horiz-adv-x="759" d="M174 399l29 346l155 412l228 316l39 -52l-185 -297l-125 -430l-2 -407l74 -373l254 -389l-27 -57l-198 247l-164 381z" />
<glyph unicode=")" horiz-adv-x="759" d="M125 1427l39 35l266 -405l145 -436l-2 -414l-145 -379l-268 -356l-29 49l158 221l114 311l41 418l-20 371l-102 280l-119 168z" />
<glyph unicode="*" horiz-adv-x="1069" d="M86 1053l109 80l258 -27l-193 211l49 141l109 -28l110 -287l93 278l145 60l22 -146l-182 -233l289 49l80 -98l-101 -90l-276 63l182 -211l-26 -141l-138 39l-84 295l-73 -271l-123 -90l-60 135l181 240l-250 -51z" />
<glyph unicode="+" horiz-adv-x="892" d="M86 526l6 174l324 -28v387l114 8l-26 -379l317 -18l-18 -119l-295 -10l37 -369l-146 14l13 349z" />
<glyph unicode="," horiz-adv-x="532" d="M82 98l135 150l148 -109l73 -225l-43 -150l-116 -114l-166 -64l2 60l137 57l90 145l-47 125l-43 62l-72 -29z" />
<glyph unicode="-" horiz-adv-x="651" d="M106 453l7 149l229 -45l217 31l-8 -174l-180 35z" />
<glyph unicode="." horiz-adv-x="456" d="M92 76l121 160l117 -134l-117 -143z" />
<glyph unicode="/" horiz-adv-x="651" d="M-25 -371l314 836l262 997l119 -41l-348 -997l-224 -819z" />
<glyph unicode="0" horiz-adv-x="1062" d="M76 766l43 340l157 248l168 90l185 8l209 -135l118 -313l29 -367l-78 -391l-178 -234l-223 -47l-223 105l-181 313zM262 498l66 -297l129 -172l131 -6l125 122l73 330l-8 414l-55 346l-115 141l-129 13l-61 -19l-90 -115l-56 -411z" />
<glyph unicode="1" horiz-adv-x="788" d="M51 1376l4 74l217 -41l213 25l-26 -1211l114 -153l152 -29l-6 -53l-324 24l-305 -22l-27 63l162 10l80 144l-8 1055l-117 112z" />
<glyph unicode="2" horiz-adv-x="1038" d="M6 -27l238 256l311 334l152 316l-31 264l-154 151l-227 -45l-154 -143l-49 22l129 191l195 127l241 -2l197 -150l39 -284l-105 -277l-268 -334l-313 -278l102 41l410 6l147 100l72 140l41 -25l-80 -176l-61 -213l-377 18z" />
<glyph unicode="3" horiz-adv-x="952" d="M59 248l105 125l123 -113l-58 -84l179 -143l202 41l105 186l-25 203l-176 180l-149 47l-140 -14l236 147l141 117l62 201l-150 188l-211 -29l-168 -159l-37 30l148 205l211 97l229 -33l141 -172l-12 -205l-139 -164l-180 -102l168 -25l137 -113l84 -141l-19 -250 l-108 -153l-176 -115l-258 -16l-197 168z" />
<glyph unicode="4" horiz-adv-x="1062" d="M-33 440l733 1026l50 -36l2 -826l-45 -26l288 18l25 -160l-238 -4l-39 -26v-207l115 -148l76 -4l10 -53l-289 10l-254 -20v63l95 43l90 100v240zM164 584l416 12v545l38 94z" />
<glyph unicode="5" horiz-adv-x="968" d="M63 236l134 124l116 -137l-51 -55l119 -121l131 -12l170 137l45 217l-63 270l-195 127l-199 -32l-116 -86l-45 22l71 383l17 361l508 -7l81 64l27 70l35 -25l-72 -301l-538 27l24 -19l-51 -373l219 70l297 -100l168 -232l-10 -276l-158 -264l-270 -101l-256 49l-125 152z " />
<glyph unicode="6" horiz-adv-x="1067" d="M70 406l12 301l180 364l297 266l313 154l9 -41l-242 -172l-283 -356l-53 -97l201 99l268 -41l170 -185l57 -313l-71 -260l-269 -135l-253 -2l-218 125zM231 492l33 -238l131 -195l185 -32l125 41l88 108l32 225l-47 213l-151 193l-219 22l-146 -71l8 -19z" />
<glyph unicode="7" horiz-adv-x="989" d="M35 1067l86 373l467 -23l448 39l-456 -786l-322 -680l-174 -8l776 1314l-76 -39l-503 11l-158 -103l-39 -108z" />
<glyph unicode="8" horiz-adv-x="970" d="M41 258l33 236l143 149l145 90l-196 146l-90 211l57 229l213 121l234 26l215 -92l77 -194l-36 -189l-105 -114l-131 -84l170 -150l133 -223l-14 -213l-139 -172l-220 -64l-211 11l-180 100zM215 229l51 -133l142 -69l167 -4l150 120l18 207l-86 166l-108 111l-121 67v29 l-113 -80l-84 -207zM233 1124l93 -178l139 -94l59 -37l-12 -43l96 76l64 190l22 189l-82 133l-118 63l-168 -41l-88 -94z" />
<glyph unicode="9" horiz-adv-x="1052" d="M51 1036l117 252l192 150l275 37l225 -138l129 -276l-16 -379l-178 -338l-336 -274l-285 -121l-29 35l277 178l242 237l98 244l-105 -63l-260 -41l-186 73l-119 160zM233 1090l23 -213l80 -156l162 -100l178 22l123 92l-13 17l15 286l-29 197l-82 123l-139 59l-156 -24 l-119 -121z" />
<glyph unicode=":" horiz-adv-x="454" d="M86 104l125 134l141 -119l-131 -170zM86 797l145 153l127 -151l-137 -142z" />
<glyph unicode=";" horiz-adv-x="505" d="M76 115l141 116l96 -30l117 -162l4 -199l-110 -168l-142 -121l-37 35l88 68l82 115l25 174l-98 86l-64 -39zM111 778l151 170l148 -164l-156 -147z" />
<glyph unicode="&#x3c;" horiz-adv-x="1026" d="M154 555l4 145l434 250l280 221l-2 -163l-479 -295l-170 -101l647 -407l-12 -142l-625 453z" />
<glyph unicode="=" horiz-adv-x="1284" d="M186 356l11 131l487 -32l387 32l23 -137l-406 21zM190 721l3 162l460 -31l432 12l7 -141l-437 33z" />
<glyph unicode="&#x3e;" horiz-adv-x="1026" d="M154 76l14 141l420 275l211 120l-123 68l-520 321v156l379 -278l327 -215l17 -113l-310 -189z" />
<glyph unicode="?" horiz-adv-x="921" d="M20 1128l130 191l194 127l270 -2l195 -150l39 -284l-53 -138l-367 -307l-43 -71l29 -105l82 -49l-86 -86l-119 111l24 143l301 295l46 76l-31 264l-180 151l-228 -45l-153 -143zM334 80l106 121l111 -101l-105 -135z" />
<glyph unicode="@" horiz-adv-x="1927" d="M154 666l256 585l579 209l496 -157l254 -351l-10 -471l-373 -366l-113 4l-108 110l-115 -98l-170 -41l-195 98l-16 273l149 121l379 123l-51 14l-4 125l-51 94l-127 47l-121 -106l53 -76l-106 -88l-103 92l267 242l206 12l132 -197l-21 -557l51 -71l74 10l291 252l43 432 l-232 332l-460 143l-516 -229l-216 -504l46 -533l280 -282l383 -105l340 53l262 185l39 -29l-295 -192l-319 -78l-469 119l-291 286zM776 291l113 -92l119 -11l114 86l-16 361l-326 -139z" />
<glyph unicode="A" horiz-adv-x="1380" d="M18 -6v57l95 12l84 119l479 1342l74 28l256 -841l211 -543l110 -111l82 -10l-18 -51l-261 10l-212 -12l-23 63l70 -6l63 109l-141 403l24 41h-514l17 -37l-117 -366l31 -144l145 -18l12 -45l-241 22zM434 682l438 -16l-210 553l6 118z" />
<glyph unicode="B" horiz-adv-x="1275" d="M98 -18l21 71l98 21l82 133l-14 1044l-74 115l-96 20l-6 52l223 -11l180 17l385 -55l178 -201l-10 -219l-139 -154l-213 -53l129 -17l141 -55l143 -149l45 -170l-75 -209l-260 -166zM418 1393l59 -27v-604l160 4l164 65l110 121l-8 205l-131 168l-190 80zM430 711l27 -23 l10 -522l106 -127l146 -4l172 67l84 129l4 201l-121 182l-217 97h-211z" />
<glyph unicode="C" horiz-adv-x="1380" d="M55 682l70 350l197 279l319 133l403 16l244 -119l15 -155l18 -199l-61 10l-37 168l-76 164l-246 80l-321 -74l-220 -256l-71 -362l47 -328l219 -254l293 -112l217 36l201 209l59 187l45 -15l-108 -389l-224 -69l-295 -21l-358 125l-246 229z" />
<glyph unicode="D" horiz-adv-x="1595" d="M86 33l125 43l88 147l-6 996l-82 155h-102l-3 56l230 -9l205 29l225 2l332 -98l305 -244l108 -330l-49 -372l-252 -265l-290 -131l-297 -24l-244 18l-285 -24zM410 1382l57 -30l-8 -1030l37 -154l178 -129l278 37l201 160l102 243l7 346l-113 303l-258 179l-283 82z" />
<glyph unicode="E" horiz-adv-x="1271" d="M70 -18l12 53l139 47l68 154l-10 1009l-82 137h-103l4 58l520 -13l490 7l-37 -154l12 -174l-41 -4l-41 194l-165 80l-449 -16l74 -8l2 -580l315 10l125 86l33 125l49 -18l-31 -240l21 -225l-57 -4l-25 106l-2 9l-137 73h-336l49 -45l-8 -426l123 -149l176 -27l215 35 l153 166l31 205l53 -23l-26 -207l-74 -233l-709 10z" />
<glyph unicode="F" horiz-adv-x="1128" d="M92 23l105 30l86 113l2 1096l-90 112l-101 2l-2 51l434 7l572 12l-39 -156v-190l-51 -15l-7 172l-153 132l-426 -9l51 -55l-4 -567l297 -13l133 70l53 150l29 -25l-39 -246l21 -245h-50l-16 124l-104 86l-383 21l51 -53v-363l90 -178l129 -29v-69l-283 24l-303 -22z" />
<glyph unicode="G" horiz-adv-x="1488" d="M72 852l166 334l321 235l418 39l387 -80l-39 -170l12 -206l-43 6l-77 235l-218 152l-292 2l-248 -127l-123 -242l-33 -336l39 -258l184 -235l262 -138l267 -30l92 69v250l-57 133l-134 33l19 68l227 -31l242 31l2 -45l-129 -80l10 -254l78 -103l-188 -90l-209 -32l-359 2 l-313 135l-223 276z" />
<glyph unicode="H" horiz-adv-x="1708" d="M72 -12l6 53l133 35l68 129v989l-76 160l-105 16l-4 68l252 -15l311 27l23 -64l-107 -4l-100 -161l-16 -430l864 2l-78 38l-16 426l-68 117l-139 23l31 43l270 -35l297 35v-51l-90 -3l-94 -159l-21 -998l76 -137l123 -57l6 -39l-277 22l-305 -28l6 57l117 12l88 162 l-4 479l-835 7l55 -31l10 -320l27 -247l149 -86l25 -23z" />
<glyph unicode="I" horiz-adv-x="743" d="M66 1386l16 66l299 -59l295 47l14 -47l-131 -35l-82 -150l-14 -1018l74 -120l133 -37v-51l-318 47l-270 -35v57l164 53l26 97l-2 1087l-135 88z" />
<glyph unicode="J" horiz-adv-x="743" d="M-78 -303l191 39l147 223l43 217l-20 1045l-80 139l-105 29l-6 61l289 -33l289 23l16 -66h-88l-119 -129l4 -1085l-86 -299l-299 -207l-164 -25z" />
<glyph unicode="K" horiz-adv-x="1490" d="M92 -6l6 41l115 22l84 131l-4 994l-66 170l-112 34l-2 48l241 -21l264 39l13 -59l-103 -27l-61 -94l10 -473l-55 -94l289 229l278 362l-37 90l-61 11l-8 37l225 -11l201 17l41 -47l-84 -13l-207 -118l-455 -512l82 26l422 -516l242 -197l123 -34l-5 -45l-229 10l-188 96 l-220 238l-354 360l-8 -334l59 -239l156 -68v-59l-289 28z" />
<glyph unicode="L" horiz-adv-x="1271" d="M72 1374l4 76l278 -37l369 27l-18 -60l-138 -10l-94 -102l-14 -1106l69 -88l441 6l141 108l82 201l68 -12l-119 -393l-473 26l-586 -20l-2 57l90 4l109 111l-7 1110l-98 102h-102z" />
<glyph unicode="M" horiz-adv-x="1812" d="M-47 53l104 10l101 132l118 993l-79 170l-107 33l8 65l211 -29l201 19l10 -60l-63 -34l356 -893l74 -201l71 246l345 813l-43 110l24 29l184 -35l211 21v-58l-65 -2l-115 -143l82 -1044l78 -132l119 -16l4 -47l-330 12l-254 -24l-14 55l100 14l119 154l-62 836l-10 180 l-65 -185l-424 -1089l-232 512l-229 520l-49 186l-17 -286l-49 -690l70 -109l125 -39l-4 -55l-236 31l-254 -35z" />
<glyph unicode="N" horiz-adv-x="1597" d="M-27 1427l168 11l168 14l908 -1059l67 -102l-18 917l-80 162l-166 29l4 53l281 -25l237 19l12 -49l-127 -23l-77 -149l-9 -1127l25 -174l-981 1114l-63 150l10 -957l106 -141l111 -37l2 -59l-268 12l-289 -35l-4 45l162 52l104 190v934l-125 174l-149 16z" />
<glyph unicode="O" horiz-adv-x="1599" d="M61 717l17 147l139 371l350 205l410 12l348 -172l186 -362v-408l-157 -320l-316 -194l-315 -23l-322 101l-237 223zM293 739l65 -346l213 -289l297 -57l297 143l123 291l10 383l-120 324l-150 170l-217 51l-213 -51l-211 -193z" />
<glyph unicode="P" horiz-adv-x="1167" d="M74 51l110 23l92 137l-10 1051l-112 118h-74v50l176 -13l309 23l289 -41l211 -164l25 -272l-152 -234l-276 -108l-222 2l-2 -394l94 -149l132 -33l-5 -47l-292 23l-289 -33zM377 1389l67 -48l-4 -671l174 -6l234 122l59 246l-86 230l-217 104z" />
<glyph unicode="Q" horiz-adv-x="1599" d="M61 717l17 147l139 371l350 205l410 12l348 -172l186 -362v-408l-157 -320l-316 -194l-315 -23l-322 101l-237 223zM293 739l65 -346l213 -289l297 -57l297 143l123 291l10 383l-120 324l-150 170l-217 51l-213 -51l-211 -193zM723 -195l215 144l98 12l246 -92l141 8 l103 111l47 -35l-213 -193l-127 -14l-277 104l-188 -106z" />
<glyph unicode="R" horiz-adv-x="1409" d="M88 -4l10 51l135 35l72 113l4 1073l-90 98l-117 20l23 54l211 -13l252 19l233 -12l262 -183l9 -288l-119 -160l-172 -70l114 -41l123 -309l129 -283l222 -61l14 -57l-246 6l-203 121l-161 450l-109 105l-199 8l-8 -414l43 -137l176 -74l4 -51l-303 27zM410 1386l79 -16 l-4 -649l215 29l193 168l-2 280l-178 184l-178 27z" />
<glyph unicode="S" horiz-adv-x="1062" d="M76 418l33 24l81 -219l191 -170l229 -6l172 154l-26 231l-256 209l-262 211l-48 233l80 244l215 135l248 4l201 -92l-23 -309h-34l-66 250l-170 92l-203 -33l-86 -227l82 -186l342 -236l193 -215l6 -260l-156 -195l-227 -90l-250 21l-211 92z" />
<glyph unicode="T" horiz-adv-x="1275" d="M-12 1116l51 379l90 -74l1042 6l72 82l29 -409l-45 -17l-37 142l-170 129l-293 6l-8 -1092l59 -164l205 -65v-45l-342 24l-356 -22l4 33l200 69l66 156l-12 1071l49 33l-232 2l-225 -43l-98 -227z" />
<glyph unicode="U" horiz-adv-x="1595" d="M61 1427l299 -12l277 25l-4 -58l-107 -12l-88 -151v-881l172 -219l291 -33l248 66l123 221l-4 831l-76 150l-121 43l12 37l244 -11l205 11l-2 -48l-80 -22l-70 -137l-4 -631l-55 -336l-201 -237l-319 -58l-334 68l-201 260l-10 932l-80 139l-106 18z" />
<glyph unicode="V" horiz-adv-x="1490" d="M57 1380l4 54l238 -17l283 13l6 -41l-109 -13l-45 -133l348 -950l6 -125l392 1065l-50 141l-118 25v41l217 -17l237 15v-49l-90 -19l-133 -172l-469 -1225l-18 -98l-480 1288l-116 178z" />
<glyph unicode="W" horiz-adv-x="1927" d="M23 1382l2 56l229 -25l256 27l6 -51l-94 -15l-70 -119l236 -866l6 -129l330 959l63 215l51 6l310 -1086l-7 -86l304 987l-48 115l-108 27l4 37l207 -17l219 21l10 -52l-80 -16l-110 -119l-436 -1319l-328 1106l-12 133l-428 -1251l-398 1409z" />
<glyph unicode="X" horiz-adv-x="1273" d="M27 35l86 33l184 120l285 488l-310 602l-98 92l-111 19l-6 47l265 -17l237 17v-41l-70 -21l-26 -78l203 -401l8 -76l227 432l-27 125l-73 29l10 29l190 -21l228 27l10 -47l-113 -19l-137 -125l-262 -450l252 -496l135 -205l129 -47l4 -61l-248 26l-227 -28l-10 41l74 34 l28 80l-229 430l-17 76l-233 -442l6 -121l94 -45v-37l-215 19l-237 -29z" />
<glyph unicode="Y" horiz-adv-x="1271" d="M76 1380l6 50l207 -25l231 33l6 -45l-69 -19l-33 -74l240 -550l-19 -74l47 53l264 539l-53 125l-82 4v37l205 -17l213 21v-45l-55 -7l-148 -124l-319 -605l-6 -409l65 -152l131 -49v-47l-293 18l-247 -24l12 63l78 17l86 121l-2 409l-344 727z" />
<glyph unicode="Z" horiz-adv-x="1386" d="M63 -12l910 1319l55 41l-567 -7l-189 -131l-71 -196l-27 18l39 389l520 -12l551 14l-866 -1310l-53 -27l624 12l213 123l107 225h55l-96 -430l-965 -4z" />
<glyph unicode="[" horiz-adv-x="759" d="M188 1466l426 -26v-70h-315l47 -35l8 -1765l271 -2l-11 -74h-413l43 1004z" />
<glyph unicode="\" horiz-adv-x="641" d="M16 1430l82 38l551 -1886l-78 -24z" />
<glyph unicode="]" horiz-adv-x="759" d="M98 -518l15 76l360 -7l-76 35l6 1739l64 39h-369l11 76l446 -2l-20 -80v-1811l8 -53z" />
<glyph unicode="^" horiz-adv-x="1927" d="M379 893l516 575h121l508 -553l-74 -26l-492 405l48 86l-549 -508z" />
<glyph unicode="_" d="M4 -346l461 -37l457 21l16 -181l-926 31z" />
<glyph unicode="`" d="M236 1810l129 84l194 -364l-55 -19z" />
<glyph unicode="a" horiz-adv-x="854" d="M78 358l149 121l379 123l-51 14l-4 125l-51 95l-127 47l-121 -107l53 -76l-106 -88l-103 93l266 241l207 12l131 -196l-20 -557l94 -131l49 4l11 -45l-201 -43l-88 84l28 53l-114 -98l-170 -41l-195 98zM215 188l113 -92l118 -10l115 86l-16 360l-326 -139z" />
<glyph unicode="b" horiz-adv-x="1060" d="M51 1470l119 19l145 84l25 -33l-31 -264l-6 -445l234 121l313 -37l151 -319l-32 -328l-174 -198l-283 -88l-412 88l64 55l-4 1212l-54 82h-45zM256 772l39 -16l-2 -447l78 -196l184 -72l203 78l96 235l-39 312l-166 170l-227 16z" />
<glyph unicode="c" horiz-adv-x="821" d="M47 571l197 297l288 97l179 -27l90 -102l-107 -97l-162 140h-165l-129 -146l-27 -241l102 -261l187 -122l168 12l118 80l29 -19l-86 -112l-223 -82l-240 41l-194 213z" />
<glyph unicode="d" horiz-adv-x="1024" d="M57 557l166 291l273 117l106 4l199 -54l-62 62l23 385l-139 90l-5 47l150 6l145 70l11 -43l-21 -62l4 -1318l58 -84l57 26l18 -57l-106 -19l-184 -53l18 111l4 129l-82 -109l-211 -119l-186 35l-195 172zM211 479l88 -272l205 -98l182 47l115 135l-39 -4v354l-92 217 l-193 41l-201 -117z" />
<glyph unicode="e" horiz-adv-x="856" d="M39 354l53 336l166 211l129 62l205 -17l158 -115l61 -268l-674 -69l80 -23l-10 -35l88 -194l211 -133l186 41l99 129l36 -50l-198 -200l-185 -45l-243 79zM215 559l426 62l-39 208l-151 89l-129 -39l-80 -86z" />
<glyph unicode="f" horiz-adv-x="550" d="M20 815v53l164 90l29 283l152 254l196 68l80 -7l111 -92l-123 -108l-125 133l-103 -31l-65 -205l-4 -374l20 28l158 4l6 -92l-176 -4l14 -627l23 -108l121 -39l-4 -47l-209 24l-224 -18l9 35l71 20l62 101l-15 630l39 23z" />
<glyph unicode="g" horiz-adv-x="1026" d="M66 109l118 145l95 74l-121 108l-66 211l105 238l198 92l234 -12l100 -64l279 37l-7 -117l-231 19l61 -123l-20 -213l-117 -160l-235 -63l-129 20l-107 -117l70 -125l565 -73l107 -187l-117 -196l-279 -97l-313 5l-152 49l-34 247l59 -6l100 -170l209 -82l242 52l119 247 l-21 76l-618 47zM240 672l32 -187l109 -135l96 -16l127 39l66 121v223l-133 198l-107 25l-121 -61z" />
<glyph unicode="h" horiz-adv-x="1058" d="M45 6l6 33l80 35l43 102l-16 1167l-101 80l-6 50l129 20l129 80l23 -33l-27 -711l301 146l230 -82l75 -199l7 -542l55 -111l37 -4l2 -37l-162 12l-213 -12l-8 41l71 10l68 88l-12 527l-123 182h-160l-213 -92l49 -11l-10 -600l59 -82l68 -28l-6 -31l-189 19z" />
<glyph unicode="i" horiz-adv-x="503" d="M47 0l10 53l86 10l56 105l-19 565l-76 88l-41 -12l-16 45l152 47l131 74l37 -25l-33 -805l72 -88l59 -34l-6 -39l-191 26zM135 1382l125 138l113 -150l-135 -113z" />
<glyph unicode="j" horiz-adv-x="479" d="M-80 -412l162 78l102 217l-26 844l-60 66l-43 4l-4 51l144 41l116 82l49 -33l-24 -922l-64 -276l-170 -143l-159 -62zM125 1393l135 120l105 -133l-113 -112z" />
<glyph unicode="k" horiz-adv-x="931" d="M45 39l82 33l29 100l14 576l-6 579l-66 98l-24 5l-8 47l124 18l109 74l29 -21l-33 -803l10 -253l234 301l-9 71l-38 4l-11 54l183 -11l233 37v-49l-90 -10l-195 -107l-196 -241l57 8l338 -418l109 -96l41 -2l-3 -27l-141 -29l-168 105l-295 422l-94 -98l51 18l6 -305 l45 -66l74 -12v-41l-200 18l-183 -22z" />
<glyph unicode="l" horiz-adv-x="468" d="M39 53l78 4l59 121l-8 1184l-70 63l-12 58l119 22l100 64l47 -21l-41 -975l11 -430l61 -90l72 -12v-51l-205 26l-209 -16z" />
<glyph unicode="m" horiz-adv-x="1617" d="M35 35l65 18l68 82l-16 608l-89 70l-16 39l152 53l77 72l31 8l4 -125l-43 -98l119 110l193 80l200 -30l99 -131l129 110l192 64l182 -60l88 -192v-531l33 -108l66 -33l14 -45l-174 20l-238 -20v45l105 16l53 127l-16 469l-86 166l-236 2l-174 -116l68 12l4 -545l26 -92 l76 -23v-51l-174 10l-211 -22l10 47l60 12l69 86l-12 561l-112 125l-226 -6l-149 -121l61 13l-6 -549l49 -92l80 -17l8 -65l-200 28l-191 -20z" />
<glyph unicode="n" horiz-adv-x="1044" d="M55 39l64 24l57 103v567l-74 86l-24 -10l-17 35l146 45l112 86l27 -23l-20 -155l131 98l248 74l176 -101l49 -198l-10 -545l65 -78l29 -12l2 -41l-174 18l-187 -22l-6 51l70 16l55 88l-2 527l-98 170l-162 10l-252 -117l59 4l3 -600l59 -86l78 -14l-6 -33l-215 4l-170 -6 z" />
<glyph unicode="o" horiz-adv-x="1062" d="M43 494l117 325l254 131l248 -4l104 -28l168 -121l86 -256l-45 -287l-160 -201l-266 -65l-273 45l-194 178zM217 354l109 -233l178 -88l180 26l111 187l53 315l-76 238l-154 96l-194 -6l-164 -178z" />
<glyph unicode="p" horiz-adv-x="1060" d="M51 -518l8 57l86 33l35 113l-28 1077l-70 63l-16 52l124 32l107 66l27 -17l-19 -122l232 125l243 -29l178 -176l50 -301l-95 -267l-202 -153l-234 -47l-211 18l56 -29l6 -319l45 -100l127 -25v-51l-217 29zM276 762l43 -27l-14 -368l41 -205l154 -103l207 31l108 141 l35 273l-123 289l-223 71z" />
<glyph unicode="q" horiz-adv-x="1060" d="M55 551l191 291l223 108l227 -4l164 -88l53 117l43 -17l-36 -116l-13 -1172l37 -114l78 -21v-43l-203 21l-217 -27l2 47l109 39l49 111l-10 407l-215 -102l-242 24l-209 217zM233 627l7 -289l141 -207l205 -57l213 82l-37 20v471l-45 156l-191 92l-184 -51z" />
<glyph unicode="r" horiz-adv-x="684" d="M63 39l76 24l49 109l-18 563l-68 72h-30l-2 41l108 31l127 86l27 -25l-17 -174l-30 -123l172 252l127 63l106 -120l-119 -121l-79 92l-125 -92l-41 -168l-4 -387l63 -92l113 -31l2 -35l-240 19l-194 -27z" />
<glyph unicode="s" horiz-adv-x="714" d="M57 303l37 -12l60 -164l135 -88l155 35l45 180l-94 125l-274 170l-39 190l88 154l166 68l92 -7l160 -61l6 -205l-39 6l-43 135l-121 82l-112 -26l-52 -119l49 -123l322 -244l39 -151l-82 -180l-184 -78l-207 20l-94 58z" />
<glyph unicode="t" horiz-adv-x="516" d="M20 842l279 280l41 -6l-14 -194l151 -4l12 -109l-176 -10l2 -393l25 -254l55 -70l99 37l14 -43l-133 -99l-162 39l-53 162l8 604l49 27l-174 -2z" />
<glyph unicode="u" horiz-adv-x="1054" d="M31 938l147 -14l141 28l3 -684l112 -170h168l170 109l-35 24l-4 562l-57 75l-82 15l-8 51l153 -12l181 28l-17 -440l-2 -375l55 -49l64 12l-6 -51l-133 -8l-142 -57l-6 161l-162 -108l-196 -41l-187 102l-30 373v317l-64 78l-51 19z" />
<glyph unicode="v" horiz-adv-x="927" d="M18 895v49l162 -16l185 10l20 -43l-86 -12l-23 -84l222 -576l-13 -121l267 705l-45 86l-66 8v62l168 -39l125 20l10 -39l-84 -37l-393 -938l-51 123l-275 744l-75 86z" />
<glyph unicode="w" horiz-adv-x="1462" d="M16 895l2 35l215 -8l170 28v-51l-75 -6l-33 -72l194 -557l-6 -98l279 766l41 -10l198 -668v-104l254 649l-28 90l-64 12l21 43l147 -26l127 26l10 -39l-59 -10l-84 -86l-362 -877l-209 652v98l-301 -752l-250 660l-105 289z" />
<glyph unicode="x" horiz-adv-x="890" d="M18 0l2 39l93 24l106 93l168 270l-256 438l-92 35l4 39l190 -8l170 16v-39l-36 -6l-39 -65l133 -211l6 -76l147 276l-10 68l-49 8l10 43l129 -14l148 14l8 -39l-51 -4l-109 -80l-194 -293l303 -458l61 -35l4 -35l-211 10l-176 -10v23l66 47l-6 69l-109 232l-4 43 l-168 -271l16 -86l54 -16l-11 -31l-147 2z" />
<glyph unicode="y" horiz-adv-x="927" d="M25 899l2 41l170 -12l184 24l6 -47l-68 -10l-26 -76l213 -608l10 -86l217 655l-41 109l-63 6l16 57l148 -24l151 22l6 -51l-90 -31l-59 -96l-422 -1147l-172 -121l-96 105l96 102l80 -73l57 32l109 277l-316 844l-51 86z" />
<glyph unicode="z" horiz-adv-x="858" d="M4 -12l545 854l88 30l-406 -14l-96 -65l-41 -144l-28 4l20 269l336 -7l391 15l-528 -832l-78 -45l411 29l132 78l61 168l43 -4l-82 -320l-500 8z" />
<glyph unicode="{" d="M160 688l123 -12l147 137v481l150 207l225 25l-4 -51l-156 -35l-84 -146l-6 -473l-102 -123l-160 -57l176 -51l92 -197l4 -409l60 -140l151 -34l-2 -58l-166 25l-174 160l-16 499l-113 160l-137 8z" />
<glyph unicode="|" d="M428 1571l82 -6l22 -2044l-88 4z" />
<glyph unicode="}" d="M176 -188l137 10l88 162l7 458l114 156l183 37l-183 37l-106 137l-2 453l-92 184l-146 20v58l178 -23l172 -166v-493l136 -152l137 -18l-4 -54l-164 -30l-99 -158l-12 -520l-162 -139l-182 -7v48z" />
<glyph unicode="~" horiz-adv-x="2895" d="M127 0v600h2v96h137v58h-37v180h37v63h-37v76h899v-94q-14 27 -49 27q-94 0 -94 -158q0 -156 98 -156q31 0 64 39v-35h49v377h766v-53h70v53h737v-1073h-2642zM129 754v180h39v-180h-39zM129 997v76h39v-76h-39zM186 160h123v86h-45v301h-78v-387zM289 823 q0 -131 94 -131q29 0 51 17q0 -47 -57 -47h-31v-62h43q113 12 113 145v252h-68v-186q0 -53 -41 -53q-39 0 -39 53v186h-65v-174zM340 160h76v73h26v-73h82v141l-53 246h-84l-47 -246v-141zM416 291v39l12 102h4l10 -102v-39h-26zM524 600h68v115q14 -25 49 -25q94 0 94 156 t-98 155q-29 0 -64 -40v36h-49v-397zM555 160h78v170h22v-170h84v155l-30 43v7l30 41v100l-22 41h-162v-387zM586 793v102q12 31 43 31q43 0 43 -78q0 -88 -45 -88q-29 0 -41 33zM633 393v84h22v-84h-22zM750 844q0 -156 110 -156q113 0 113 156q0 160 -113 160 q-111 0 -110 -160zM770 160h78v73h24v-73h78v141l-49 246h-84l-47 -246v-141zM817 844q0 84 43 84q45 0 45 -84q0 -82 -45 -82q-43 0 -43 82zM848 291v39l10 102h6l8 -102v-39h-24zM983 160h162l22 43v127l-16 28v7l16 28v113l-22 41h-162v-387zM1049 846q0 88 45 88 q27 0 39 -33v-104q-12 -29 -41 -29q-43 0 -43 78zM1063 233v97h22v-97h-22zM1063 393v84h22v-84h-22zM1200 160h80v387h-80v-387zM1214 774q2 -86 93 -86q45 0 70.5 26.5t25.5 82.5h-31q-6 -39 -51 -39q-41 0 -41 28q0 37 41 37h20v37h-20q-41 0 -41 35q0 33 41 33 q35 0 51 -41h31v110h-31v-47q-23 53 -67 54q-88 0 -88 -89q0 -55 45 -73q-47 -18 -48 -68zM1311 160h131v86h-53v80h53v67h-53v72h53v82h-131v-387zM1425 696h91v58h-29v133q0 41 29 41q12 0 24 -13l23 68q-16 14 -35 16q-43 0 -64 -49v47h-39v-301zM1530 160h80v159h49v68 h-49v78h49v82h-129v-387zM1544 696h144v58h-39v125q0 47 39 47q31 0 30 -47v-183h105v58h-39v125q0 45 39 45q31 0 30 -45v-183h68v193q0 111 -96 110q-49 0 -64 -49q-18 49 -57 49q-35 0 -55 -49v47h-66v-243h-39v-58zM1692 203l20 -43h137l25 43v303l-23 41h-139l-20 -41 v-303zM1769 233v244h23v-244h-23zM1905 160h65v250h6l19 -250h119v387h-66v-250h-6l-23 250h-114v-387zM1931 934h31v-238h70v301h-101v-63zM2048 844q0 -154 104 -154q74 0 93 119h-33q-6 -47 -51 -47q-47 0 -47 82q0 84 47 84t51 -56h33v121h-33v-43q-25 53 -62 54 q-102 0 -102 -160zM2136 465h43v-305h80v305h43v82h-166v-82zM2324 203l23 -43h133l23 43v147l-27 43l-72 17v67h21v-49h78v78l-21 41h-135l-23 -41v-135l25 -41l76 -19v-78h-21v58h-80v-88z" />
<glyph unicode="&#xa1;" horiz-adv-x="651" d="M195 104l45 320l57 602l74 -2l14 -606l43 -328l-113 -131zM213 1313l139 153l133 -163l-145 -115z" />
<glyph unicode="&#xa2;" horiz-adv-x="821" d="M47 954l197 297l186 62l-2 223l82 -6l2 -189l20 7l179 -27l90 -102l-107 -97l-180 140l12 -768l142 10l118 80l29 -19l-86 -112l-201 -74l4 -234l-88 5l-2 231l-176 31l-194 213zM211 874l102 -260l127 -84l-8 732h-65l-129 -146z" />
<glyph unicode="&#xa3;" horiz-adv-x="1206" d="M-57 57l127 138l151 -27l68 182l51 264l-186 17v35l206 28l136 441l204 278l295 39l154 -141l25 -84l-107 -99l-115 117l47 55l-69 103l-131 -29l-158 -252l-104 -405l251 -53l-10 -50l-272 11l-62 -246l-200 -266l88 49l493 -139l189 36l45 113l-94 74l90 108l94 -131 l-98 -207l-193 -108l-162 -10l-475 165l-178 -96z" />
<glyph unicode="&#xa4;" horiz-adv-x="1380" d="M-57 414l10 131l135 -10l-33 147l21 104l-129 -8l2 162l155 -10l21 102l197 279l319 133l403 16l154 -76l-41 -77l-10 22l-246 80l-321 -74l-220 -256l-32 -166l82 -4l548 9l-65 -127l-481 22l-107 -8l-16 -88l28 -197l123 -8l320 16l-55 -108l-261 8l-114 -4l6 -35 l219 -254l293 -112l217 36l143 148l90 -25l-36 -131l-224 -69l-295 -21l-358 125l-246 229l-24 103z" />
<glyph unicode="&#xa5;" horiz-adv-x="1271" d="M76 1380l6 50l207 -25l231 33l6 -45l-69 -19l-33 -74l240 -550l-19 -74l47 53l264 539l-53 125l-82 4v37l205 -17l213 21v-45l-55 -7l-148 -124l-319 -605l-6 -409l65 -152l131 -49v-47l-293 18l-247 -24l12 63l78 17l86 121l-2 409l-344 727zM163 266l11 131l487 -32 l387 32l23 -137l-406 21zM167 631l3 162l460 -31l432 12l7 -141l-437 33z" />
<glyph unicode="&#xa6;" d="M395 -313l43 372l-22 349l155 -13l-55 -362l39 -373zM397 690l60 357l-39 366l131 14l-23 -395l23 -352z" />
<glyph unicode="&#xa7;" horiz-adv-x="763" d="M74 631l73 160l162 65l27 -2l-166 104l-57 195l80 154l159 67l94 -2l164 -65l21 -209l-39 6l-53 139l-125 84l-113 -29l-41 -116l55 -127l342 -250l52 -154l-70 -186l-166 -74l141 -106l54 -156l-70 -182l-180 -78l-209 20l-98 58l-31 239l37 -10l76 -168l139 -88l157 33 l27 182l-100 131l-289 174zM219 659l55 -124l125 -91l131 27l19 119l-51 133l-127 84l-111 -27z" />
<glyph unicode="&#xa8;" d="M158 1606l114 141l125 -115l-102 -135zM575 1614l117 133l121 -121l-108 -119z" />
<glyph unicode="&#xa9;" horiz-adv-x="1927" d="M252 934l209 328l250 188l393 25l326 -164l223 -346l33 -347l-93 -296l-256 -265l-299 -90l-270 21l-225 108l-168 197l-117 147zM326 479l151 -227l279 -201l368 -22l295 184l185 240l16 309l-115 328l-190 245l-303 78l-250 -16l-201 -135l-115 -129l-120 -240v-414z M543 885l190 237l273 80l272 -74l4 -135l27 -125l-47 -14l-93 213l-114 61l-207 -18l-143 -199l-11 -268l99 -207l159 -112l166 26l154 195l22 73l37 -45l-69 -235l-197 -78l-291 33l-209 225z" />
<glyph unicode="&#xaa;" horiz-adv-x="643" d="M51 952l43 131l314 138l-56 108l-131 31l-41 -25l23 -55l-68 -70l-78 58l78 108l230 90l145 -123l10 -454l53 -68h45l11 -45l-62 -14l-114 4l-58 31l19 63l-135 -94l-150 25zM160 930l92 -94l76 2l82 67l-15 242l21 45l-236 -135z" />
<glyph unicode="&#xab;" horiz-adv-x="892" d="M43 487l403 377l37 -22l-141 -238l-145 -117l149 -127l143 -210l-55 -54l-190 228zM401 475l394 389l43 -20l-127 -232l-160 -131l156 -125l135 -221l-31 -39z" />
<glyph unicode="&#xad;" horiz-adv-x="651" d="M106 453l7 149l229 -45l217 31l-8 -174l-180 35z" />
<glyph unicode="&#xae;" horiz-adv-x="1583" d="M135 893l195 301l233 176l363 23l301 -150l207 -323l30 -320l-86 -276l-235 -244l-277 -84l-252 18l-206 101l-160 182l-109 137zM205 471l139 -211l258 -186l342 -19l275 168l170 223l16 287l-107 303l-176 228l-282 71l-232 -12l-186 -129l-105 -117l-112 -225v-381z M438 1030l6 66l164 -6l242 12l201 -31l73 -176l-65 -137l-234 -51l95 -27l86 -76l69 -260l64 10l24 109l39 -4l-16 -152l-127 -33l-129 66l-17 221l-98 109l-160 18l37 -39l-6 -266l123 -55l-14 -47l-160 32l-174 -32l-8 51l59 8l61 61l-8 568l-49 63zM674 997l10 -262 l174 -6l105 78l26 108l-86 117l-174 23z" />
<glyph unicode="&#xaf;" d="M158 1659l315 -23l285 35l20 -143l-305 12l-305 -18z" />
<glyph unicode="&#xb0;" horiz-adv-x="632" d="M61 1280l123 133l226 37l151 -125l31 -223l-88 -180l-271 -27l-170 160zM145 1090l131 -125l162 51l72 205l-113 133l-139 -6l-106 -97z" />
<glyph unicode="&#xb2;" horiz-adv-x="700" d="M25 602l383 356l55 224l-62 125l-180 24l-119 -112l-51 26l162 164l174 37l178 -117l-6 -246l-168 -229l-254 -211l82 33l270 -6l76 37l64 96l33 -17l-95 -231l-231 18l-299 -22z" />
<glyph unicode="&#xb3;" horiz-adv-x="700" d="M63 705l97 88l61 -60l-8 -63l70 -56l127 4l88 121l-15 156l-170 80l-153 -41l-19 24l277 152l45 133l-66 100l-157 9l-125 -117l-37 31l155 143l183 31l125 -54l41 -124l-56 -109l-198 -123l96 17l72 -27l108 -105l19 -149l-74 -123l-162 -70l-199 -2z" />
<glyph unicode="&#xb4;" d="M422 1534l190 350l136 -102l-291 -277z" />
<glyph unicode="&#xb5;" horiz-adv-x="1054" d="M-94 -260l119 358l145 658l8 116l162 5l-133 -533l26 -184l189 -68l145 129l146 656l155 -13l-139 -696l82 -82l115 82l57 176l43 -37l-74 -239l-174 -95l-125 74l-30 152l-91 -158l-155 -57l-164 67l-61 150l-50 -500l-108 -121z" />
<glyph unicode="&#xb6;" d="M43 1198l227 262l400 23l237 47l-6 -103l-123 -34l27 -1381l-119 -6l14 1387l-303 -4l123 -37l2 -1248l-141 -139l-39 53l80 72l-4 713l-82 -12l-238 120z" />
<glyph unicode="&#xb8;" d="M295 -465l84 103l125 -103l88 51l-164 209l31 66l164 178l32 -12l-80 -78l-26 -51l127 -185v-106l-150 -125l-129 -31z" />
<glyph unicode="&#xb9;" horiz-adv-x="702" d="M109 612h122l74 95l-26 653l-158 49l8 47l174 -39l127 27l-16 -731l55 -88l129 -23l-16 -53l-463 18z" />
<glyph unicode="&#xba;" horiz-adv-x="798" d="M31 1188l196 215l256 37l244 -127l41 -312l-166 -208l-276 -21l-269 166zM154 1204l22 -254l160 -137l213 35l80 194l-15 230l-59 82l-76 32l-196 -12z" />
<glyph unicode="&#xbb;" horiz-adv-x="892" d="M47 121l141 256l152 108l-164 152l-115 194l41 33l404 -385l-408 -387zM401 162l142 211l157 108l-141 131l-156 207l41 35l430 -383l-430 -367z" />
<glyph unicode="&#xbc;" horiz-adv-x="1662" d="M125 1386l4 70l150 -39l137 27v-709l69 -55l82 -16l-18 -50l-375 11l-6 47l117 51l-19 635zM352 10l447 711l452 747l74 -92l-469 -696l-418 -739zM993 297l434 541l66 -29l-35 -160l21 -325l170 4l-15 -82l-178 -10l-4 -127l78 -62l63 -12l-6 -39h-340l-14 55l94 6 l29 82l-6 113l-336 -6zM1096 334l323 -2l-55 45l10 295z" />
<glyph unicode="&#xbd;" horiz-adv-x="1662" d="M119 1446l184 -23l107 11v-684l36 -93l103 9l2 -45l-232 10l-194 -6l6 47l100 4l68 100l-23 604l-139 19zM365 -6l464 756l398 735l94 -86l-451 -672l-424 -807zM1022 23l375 391l22 235l-186 86l-143 -127l-29 39l160 152l213 -2l120 -133l-36 -224l-285 -295l-113 -53 l369 -10l104 147l33 9l-104 -244l-480 -29z" />
<glyph unicode="&#xbe;" horiz-adv-x="1662" d="M57 745l68 86l102 -34l-26 -54l98 -79l135 26l39 148l-115 147l-178 -27l-35 27l295 209l-22 106l-105 66l-184 -98l-37 6l60 84l157 88l164 -6l68 -121l-37 -143l-199 -134l117 37l94 -41l82 -127l-27 -182l-118 -88l-213 -33zM346 -6l463 733l412 752l94 -74l-447 -698 l-434 -783zM993 231l8 56l416 542l62 -22l-11 -473l166 -2v-80h-155v-184l112 -35l29 -43l-385 -2l8 45l105 26l8 152l53 41zM1110 340h250l4 291l33 69z" />
<glyph unicode="&#xbf;" horiz-adv-x="993" d="M90 397l51 140l367 305l47 71l-31 105l-82 51l86 86l121 -113l-28 -141l-299 -295l-48 -76l31 -264l182 -153l228 47l151 141l52 -22l-132 -191l-194 -125l-268 2l-195 148zM385 1307l107 137l112 -115l-106 -123z" />
<glyph unicode="&#xc0;" horiz-adv-x="1380" d="M18 -6v57l95 12l84 119l479 1342l74 28l256 -841l211 -543l110 -111l82 -10l-18 -51l-261 10l-212 -12l-23 63l70 -6l63 109l-141 403l24 41h-514l17 -37l-117 -366l31 -144l145 -18l12 -45l-241 22zM434 682l438 -16l-210 553l6 118zM560 1810l129 84l194 -364l-55 -19z " />
<glyph unicode="&#xc1;" horiz-adv-x="1380" d="M18 -6v57l95 12l84 119l479 1342l74 28l256 -841l211 -543l110 -111l82 -10l-18 -51l-261 10l-212 -12l-23 63l70 -6l63 109l-141 403l24 41h-514l17 -37l-117 -366l31 -144l145 -18l12 -45l-241 22zM434 682l438 -16l-210 553l6 118zM535 1534l190 350l136 -102 l-291 -277z" />
<glyph unicode="&#xc2;" horiz-adv-x="1380" d="M18 -6v57l95 12l84 119l479 1342l74 28l256 -841l211 -543l110 -111l82 -10l-18 -51l-261 10l-212 -12l-23 63l70 -6l63 109l-141 403l24 41h-514l17 -37l-117 -366l31 -144l145 -18l12 -45l-241 22zM434 682l438 -16l-210 553l6 118zM467 1507l29 31l223 346l232 -362 l-47 -33l-179 176l19 96l-201 -295z" />
<glyph unicode="&#xc3;" horiz-adv-x="1380" d="M18 -6v57l95 12l84 119l479 1342l74 28l256 -841l211 -543l110 -111l82 -10l-18 -51l-261 10l-212 -12l-23 63l70 -6l63 109l-141 403l24 41h-514l17 -37l-117 -366l31 -144l145 -18l12 -45l-241 22zM311 1561l191 127l88 10l217 -80l125 6l90 98l41 -30l-188 -170 l-111 -13l-246 93l-166 -95zM434 682l438 -16l-210 553l6 118z" />
<glyph unicode="&#xc4;" horiz-adv-x="1380" d="M18 -6v57l95 12l84 119l479 1342l74 28l256 -841l211 -543l110 -111l82 -10l-18 -51l-261 10l-212 -12l-23 63l70 -6l63 109l-141 403l24 41h-514l17 -37l-117 -366l31 -144l145 -18l12 -45l-241 22zM383 1606l114 141l125 -115l-102 -135zM434 682l438 -16l-210 553 l6 118zM800 1614l117 133l121 -121l-108 -119z" />
<glyph unicode="&#xc5;" horiz-adv-x="1380" d="M18 -6v57l95 12l84 119l479 1342l74 28l256 -841l211 -543l110 -111l82 -10l-18 -51l-261 10l-212 -12l-23 63l70 -6l63 109l-141 403l24 41h-514l17 -37l-117 -366l31 -144l145 -18l12 -45l-241 22zM434 682l438 -16l-210 553l6 118zM493 1788l97 104l178 29l121 -98 l24 -176l-69 -144l-216 -20l-133 127zM559 1636l104 -98l127 41l58 162l-88 104l-111 -4l-84 -78z" />
<glyph unicode="&#xc6;" horiz-adv-x="1976" d="M18 -6v57l95 12l84 119l784 1211h115l336 34l428 7l-37 -154l12 -174l-41 -4l-41 194l-166 80l-313 -24l2 -580l274 10l125 86l33 125l49 -18l-31 -240l21 -225l-57 -4l-25 106l-2 9l-137 73h-295l49 -45l-8 -426l123 -149l114 -27l215 35l154 166l31 205l53 -23 l-27 -207l-73 -233l-979 -8l12 75l188 99l-8 530l-450 -14l-133 -180l-195 -291l31 -144l145 -18l12 -45l-241 22zM692 760l350 26l21 525l-100 -121z" />
<glyph unicode="&#xc7;" horiz-adv-x="1380" d="M55 682l70 350l197 279l319 133l403 16l244 -119l15 -155l18 -199l-61 10l-37 168l-76 164l-246 80l-321 -74l-220 -256l-71 -362l47 -328l219 -254l293 -112l217 36l201 209l59 187l45 -15l-108 -389l-224 -69l-295 -21l-358 125l-246 229zM531 -473l84 103l125 -103 l88 51l-164 209l31 66l164 178l32 -12l-80 -78l-26 -51l127 -185v-106l-150 -125l-129 -31z" />
<glyph unicode="&#xc8;" horiz-adv-x="1271" d="M70 -18l12 53l139 47l68 154l-10 1009l-82 137h-103l4 58l520 -13l490 7l-37 -154l12 -174l-41 -4l-41 194l-165 80l-449 -16l74 -8l2 -580l315 10l125 86l33 125l49 -18l-31 -240l21 -225l-57 -4l-25 106l-2 9l-137 73h-336l49 -45l-8 -426l123 -149l176 -27l215 35 l153 166l31 205l53 -23l-26 -207l-74 -233l-709 10zM420 1810l129 84l194 -364l-55 -19z" />
<glyph unicode="&#xc9;" horiz-adv-x="1271" d="M70 -18l12 53l139 47l68 154l-10 1009l-82 137h-103l4 58l520 -13l490 7l-37 -154l12 -174l-41 -4l-41 194l-165 80l-449 -16l74 -8l2 -580l315 10l125 86l33 125l49 -18l-31 -240l21 -225l-57 -4l-25 106l-2 9l-137 73h-336l49 -45l-8 -426l123 -149l176 -27l215 35 l153 166l31 205l53 -23l-26 -207l-74 -233l-709 10zM574 1534l190 350l136 -102l-291 -277z" />
<glyph unicode="&#xca;" horiz-adv-x="1271" d="M70 -18l12 53l139 47l68 154l-10 1009l-82 137h-103l4 58l520 -13l490 7l-37 -154l12 -174l-41 -4l-41 194l-165 80l-449 -16l74 -8l2 -580l315 10l125 86l33 125l49 -18l-31 -240l21 -225l-57 -4l-25 106l-2 9l-137 73h-336l49 -45l-8 -426l123 -149l176 -27l215 35 l153 166l31 205l53 -23l-26 -207l-74 -233l-709 10zM432 1507l29 31l223 346l232 -362l-47 -33l-179 176l19 96l-201 -295z" />
<glyph unicode="&#xcb;" horiz-adv-x="1271" d="M70 -18l12 53l139 47l68 154l-10 1009l-82 137h-103l4 58l520 -13l490 7l-37 -154l12 -174l-41 -4l-41 194l-165 80l-449 -16l74 -8l2 -580l315 10l125 86l33 125l49 -18l-31 -240l21 -225l-57 -4l-25 106l-2 9l-137 73h-336l49 -45l-8 -426l123 -149l176 -27l215 35 l153 166l31 205l53 -23l-26 -207l-74 -233l-709 10zM314 1606l114 141l125 -115l-102 -135zM731 1614l117 133l121 -121l-108 -119z" />
<glyph unicode="&#xcc;" horiz-adv-x="743" d="M66 1386l16 66l299 -59l295 47l14 -47l-131 -35l-82 -150l-14 -1018l74 -120l133 -37v-51l-318 47l-270 -35v57l164 53l26 97l-2 1087l-135 88zM140 1810l129 84l194 -364l-55 -19z" />
<glyph unicode="&#xcd;" horiz-adv-x="743" d="M66 1386l16 66l299 -59l295 47l14 -47l-131 -35l-82 -150l-14 -1018l74 -120l133 -37v-51l-318 47l-270 -35v57l164 53l26 97l-2 1087l-135 88zM313 1534l190 350l136 -102l-291 -277z" />
<glyph unicode="&#xce;" horiz-adv-x="743" d="M66 1386l16 66l299 -59l295 47l14 -47l-131 -35l-82 -150l-14 -1018l74 -120l133 -37v-51l-318 47l-270 -35v57l164 53l26 97l-2 1087l-135 88zM137 1507l29 31l223 346l232 -362l-47 -33l-179 176l19 96l-201 -295z" />
<glyph unicode="&#xcf;" horiz-adv-x="743" d="M62 1606l114 141l125 -115l-102 -135zM66 1386l16 66l299 -59l295 47l14 -47l-131 -35l-82 -150l-14 -1018l74 -120l133 -37v-51l-318 47l-270 -35v57l164 53l26 97l-2 1087l-135 88zM479 1614l117 133l121 -121l-108 -119z" />
<glyph unicode="&#xd0;" horiz-adv-x="1595" d="M86 33l125 43l88 147l-6 996l-82 155h-102l-3 56l230 -9l205 29l225 2l332 -98l305 -244l108 -330l-49 -372l-252 -265l-290 -131l-297 -24l-244 18l-285 -24zM143 639l7 149l229 -45l217 31l-8 -174l-180 35zM410 1382l57 -30l-8 -1030l37 -154l178 -129l278 37l201 160 l102 243l7 346l-113 303l-258 179l-283 82z" />
<glyph unicode="&#xd1;" horiz-adv-x="1597" d="M-27 1427l168 11l168 14l908 -1059l67 -102l-18 917l-80 162l-166 29l4 53l281 -25l237 19l12 -49l-127 -23l-77 -149l-9 -1127l25 -174l-981 1114l-63 150l10 -957l106 -141l111 -37l2 -59l-268 12l-289 -35l-4 45l162 52l104 190v934l-125 174l-149 16zM352 1561 l191 127l88 10l217 -80l125 6l90 98l41 -30l-188 -170l-111 -13l-246 93l-166 -95z" />
<glyph unicode="&#xd2;" horiz-adv-x="1599" d="M61 717l17 147l139 371l350 205l410 12l348 -172l186 -362v-408l-157 -320l-316 -194l-315 -23l-322 101l-237 223zM293 739l65 -346l213 -289l297 -57l297 143l123 291l10 383l-120 324l-150 170l-217 51l-213 -51l-211 -193zM527 1810l129 84l194 -364l-55 -19z" />
<glyph unicode="&#xd3;" horiz-adv-x="1599" d="M61 717l17 147l139 371l350 205l410 12l348 -172l186 -362v-408l-157 -320l-316 -194l-315 -23l-322 101l-237 223zM293 739l65 -346l213 -289l297 -57l297 143l123 291l10 383l-120 324l-150 170l-217 51l-213 -51l-211 -193zM668 1534l190 350l136 -102l-291 -277z" />
<glyph unicode="&#xd4;" horiz-adv-x="1599" d="M61 717l17 147l139 371l350 205l410 12l348 -172l186 -362v-408l-157 -320l-316 -194l-315 -23l-322 101l-237 223zM293 739l65 -346l213 -289l297 -57l297 143l123 291l10 383l-120 324l-150 170l-217 51l-213 -51l-211 -193zM557 1507l29 31l223 346l232 -362l-47 -33 l-179 176l19 96l-201 -295z" />
<glyph unicode="&#xd5;" horiz-adv-x="1599" d="M61 717l17 147l139 371l350 205l410 12l348 -172l186 -362v-408l-157 -320l-316 -194l-315 -23l-322 101l-237 223zM293 739l65 -346l213 -289l297 -57l297 143l123 291l10 383l-120 324l-150 170l-217 51l-213 -51l-211 -193zM374 1561l191 127l88 10l217 -80l125 6 l90 98l41 -30l-188 -170l-111 -13l-246 93l-166 -95z" />
<glyph unicode="&#xd6;" horiz-adv-x="1599" d="M61 717l17 147l139 371l350 205l410 12l348 -172l186 -362v-408l-157 -320l-316 -194l-315 -23l-322 101l-237 223zM293 739l65 -346l213 -289l297 -57l297 143l123 291l10 383l-120 324l-150 170l-217 51l-213 -51l-211 -193zM467 1606l114 141l125 -115l-102 -135z M884 1614l117 133l121 -121l-108 -119z" />
<glyph unicode="&#xd8;" horiz-adv-x="1599" d="M61 717l17 147l139 371l350 205l410 12l348 -172l186 -362v-408l-157 -320l-316 -194l-315 -23l-322 101l-237 223zM293 739l65 -346l23 -33l410 377l368 469l-131 152l-217 51l-213 -51l-211 -193zM451 266l120 -162l297 -57l297 143l123 291l10 383l-94 250l-383 -416z " />
<glyph unicode="&#xd9;" horiz-adv-x="1595" d="M61 1427l299 -12l277 25l-4 -58l-107 -12l-88 -151v-881l172 -219l291 -33l248 66l123 221l-4 831l-76 150l-121 43l12 37l244 -11l205 11l-2 -48l-80 -22l-70 -137l-4 -631l-55 -336l-201 -237l-319 -58l-334 68l-201 260l-10 932l-80 139l-106 18zM613 1810l129 84 l194 -364l-55 -19z" />
<glyph unicode="&#xda;" horiz-adv-x="1595" d="M61 1427l299 -12l277 25l-4 -58l-107 -12l-88 -151v-881l172 -219l291 -33l248 66l123 221l-4 831l-76 150l-121 43l12 37l244 -11l205 11l-2 -48l-80 -22l-70 -137l-4 -631l-55 -336l-201 -237l-319 -58l-334 68l-201 260l-10 932l-80 139l-106 18zM739 1534l190 350 l136 -102l-291 -277z" />
<glyph unicode="&#xdb;" horiz-adv-x="1595" d="M61 1427l299 -12l277 25l-4 -58l-107 -12l-88 -151v-881l172 -219l291 -33l248 66l123 221l-4 831l-76 150l-121 43l12 37l244 -11l205 11l-2 -48l-80 -22l-70 -137l-4 -631l-55 -336l-201 -237l-319 -58l-334 68l-201 260l-10 932l-80 139l-106 18zM589 1507l29 31 l223 346l232 -362l-47 -33l-179 176l19 96l-201 -295z" />
<glyph unicode="&#xdc;" horiz-adv-x="1595" d="M61 1427l299 -12l277 25l-4 -58l-107 -12l-88 -151v-881l172 -219l291 -33l248 66l123 221l-4 831l-76 150l-121 43l12 37l244 -11l205 11l-2 -48l-80 -22l-70 -137l-4 -631l-55 -336l-201 -237l-319 -58l-334 68l-201 260l-10 932l-80 139l-106 18zM508 1606l114 141 l125 -115l-102 -135zM925 1614l117 133l121 -121l-108 -119z" />
<glyph unicode="&#xdd;" horiz-adv-x="1271" d="M76 1380l6 50l207 -25l231 33l6 -45l-69 -19l-33 -74l240 -550l-19 -74l47 53l264 539l-53 125l-82 4v37l205 -17l213 21v-45l-55 -7l-148 -124l-319 -605l-6 -409l65 -152l131 -49v-47l-293 18l-247 -24l12 63l78 17l86 121l-2 409l-344 727zM563 1534l190 350l136 -102 l-291 -277z" />
<glyph unicode="&#xde;" horiz-adv-x="1167" d="M76 -10l16 57l115 35l59 129l10 983l-69 154l-119 38l10 41l277 -18l287 29l6 -49l-164 -52l-47 -127l-23 -77l109 14l276 -31l246 -192l33 -271l-115 -217l-278 -108l-259 -25l-8 -127l84 -74l154 -39l-19 -69l-266 29zM397 1067l56 -25l-7 -682l105 -10l178 58l141 120 l25 244l-94 197l-240 110z" />
<glyph unicode="&#xdf;" horiz-adv-x="1058" d="M51 -10v51l78 6l55 103l-4 866l43 209l277 258l211 26l176 -161l10 -185l-223 -225l-10 -123l337 -397v-213l-151 -187l-160 -36l-59 -5l-82 86l86 105l104 -105l86 27l52 127l-21 145l-324 318v139l48 105l153 194l6 166l-82 119l-122 47l-170 -184l-43 -314l10 -856 l90 -61l82 4l8 -55l-256 28z" />
<glyph unicode="&#xe0;" horiz-adv-x="858" d="M78 358l149 121l379 123l-51 14l-4 125l-51 95l-127 47l-121 -107l53 -76l-106 -88l-103 93l266 241l207 12l131 -196l-20 -557l94 -131l49 4l11 -45l-201 -43l-88 84l28 53l-114 -98l-170 -41l-195 98zM215 188l113 -92l118 -10l115 86l-16 360l-326 -139zM236 1325 l129 84l194 -364l-55 -19z" />
<glyph unicode="&#xe1;" horiz-adv-x="1024" d="M78 358l149 121l379 123l-51 14l-4 125l-51 95l-127 47l-121 -107l53 -76l-106 -88l-103 93l266 241l207 12l131 -196l-20 -557l94 -131l49 4l11 -45l-201 -43l-88 84l28 53l-114 -98l-170 -41l-195 98zM215 188l113 -92l118 -10l115 86l-16 360l-326 -139zM336 1049 l190 350l136 -102l-291 -277z" />
<glyph unicode="&#xe2;" horiz-adv-x="858" d="M78 358l149 121l379 123l-51 14l-4 125l-51 95l-127 47l-121 -107l53 -76l-106 -88l-103 93l266 241l207 12l131 -196l-20 -557l94 -131l49 4l11 -45l-201 -43l-88 84l28 53l-114 -98l-170 -41l-195 98zM213 1022l29 31l223 346l232 -362l-47 -33l-179 176l19 96 l-201 -295zM215 188l113 -92l118 -10l115 86l-16 360l-326 -139z" />
<glyph unicode="&#xe3;" horiz-adv-x="858" d="M75 1076l191 127l88 10l217 -80l125 6l90 98l41 -30l-188 -170l-111 -13l-246 93l-166 -95zM78 358l149 121l379 123l-51 14l-4 125l-51 95l-127 47l-121 -107l53 -76l-106 -88l-103 93l266 241l207 12l131 -196l-20 -557l94 -131l49 4l11 -45l-201 -43l-88 84l28 53 l-114 -98l-170 -41l-195 98zM215 188l113 -92l118 -10l115 86l-16 360l-326 -139z" />
<glyph unicode="&#xe4;" horiz-adv-x="858" d="M78 358l149 121l379 123l-51 14l-4 125l-51 95l-127 47l-121 -107l53 -76l-106 -88l-103 93l266 241l207 12l131 -196l-20 -557l94 -131l49 4l11 -45l-201 -43l-88 84l28 53l-114 -98l-170 -41l-195 98zM111 1121l114 141l125 -115l-102 -135zM215 188l113 -92l118 -10 l115 86l-16 360l-326 -139zM528 1129l117 133l121 -121l-108 -119z" />
<glyph unicode="&#xe5;" horiz-adv-x="858" d="M78 358l149 121l379 123l-51 14l-4 125l-51 95l-127 47l-121 -107l53 -76l-106 -88l-103 93l266 241l207 12l131 -196l-20 -557l94 -131l49 4l11 -45l-201 -43l-88 84l28 53l-114 -98l-170 -41l-195 98zM215 188l113 -92l118 -10l115 86l-16 360l-326 -139zM229 1303 l97 104l178 29l121 -98l24 -176l-69 -144l-216 -20l-133 127zM295 1151l104 -98l127 41l58 162l-88 104l-111 -4l-84 -78z" />
<glyph unicode="&#xe6;" horiz-adv-x="1323" d="M61 354l150 121l324 57l14 127l-66 177l-129 47l-123 -107l58 -76l-109 -88l-102 93l264 241l209 12l108 -161l70 90l131 59l205 -14l156 -115l63 -268l-612 -57l45 -291l207 -119l241 51l97 127l36 -51l-196 -195l-275 -47l-219 137l-53 23l-117 -98l-168 -41l-194 98z M197 188l112 -92l119 -10l113 86v309l-340 -92zM690 545l408 61l-39 209l-152 88l-112 -41l-66 -84z" />
<glyph unicode="&#xe7;" horiz-adv-x="821" d="M47 571l197 297l288 97l179 -27l90 -102l-107 -97l-162 140h-165l-129 -146l-27 -241l102 -261l187 -122l168 12l118 80l29 -19l-86 -112l-223 -82l-240 41l-194 213zM234 -465l84 103l125 -103l88 51l-164 209l31 66l164 178l32 -12l-80 -78l-26 -51l127 -185v-106 l-150 -125l-129 -31z" />
<glyph unicode="&#xe8;" horiz-adv-x="856" d="M39 354l53 336l166 211l129 62l205 -17l158 -115l61 -268l-674 -69l80 -23l-10 -35l88 -194l211 -133l186 41l99 129l36 -50l-198 -200l-185 -45l-243 79zM215 559l426 62l-39 208l-151 89l-129 -39l-80 -86zM252 1325l129 84l194 -364l-55 -19z" />
<glyph unicode="&#xe9;" horiz-adv-x="856" d="M39 354l53 336l166 211l129 62l205 -17l158 -115l61 -268l-674 -69l80 -23l-10 -35l88 -194l211 -133l186 41l99 129l36 -50l-198 -200l-185 -45l-243 79zM215 559l426 62l-39 208l-151 89l-129 -39l-80 -86zM287 1049l190 350l136 -102l-291 -277z" />
<glyph unicode="&#xea;" horiz-adv-x="856" d="M39 354l53 336l166 211l129 62l205 -17l158 -115l61 -268l-674 -69l80 -23l-10 -35l88 -194l211 -133l186 41l99 129l36 -50l-198 -200l-185 -45l-243 79zM204 1022l29 31l223 346l232 -362l-47 -33l-179 176l19 96l-201 -295zM215 559l426 62l-39 208l-151 89l-129 -39 l-80 -86z" />
<glyph unicode="&#xeb;" horiz-adv-x="856" d="M39 354l53 336l166 211l129 62l205 -17l158 -115l61 -268l-674 -69l80 -23l-10 -35l88 -194l211 -133l186 41l99 129l36 -50l-198 -200l-185 -45l-243 79zM117 1121l114 141l125 -115l-102 -135zM215 559l426 62l-39 208l-151 89l-129 -39l-80 -86zM534 1129l117 133 l121 -121l-108 -119z" />
<glyph unicode="&#xec;" horiz-adv-x="503" d="M47 0l10 53l86 10l56 105l-19 565l-76 88l-41 -12l-16 45l152 47l131 74l37 -25l-33 -805l72 -88l59 -34l-6 -39l-191 26zM76 1325l129 84l194 -364l-55 -19z" />
<glyph unicode="&#xed;" horiz-adv-x="503" d="M47 0l10 53l86 10l56 105l-19 565l-76 88l-41 -12l-16 45l152 47l131 74l37 -25l-33 -805l72 -88l59 -34l-6 -39l-191 26zM123 1049l190 350l136 -102l-291 -277z" />
<glyph unicode="&#xee;" horiz-adv-x="503" d="M6 1022l29 31l223 346l232 -362l-47 -33l-179 176l19 96l-201 -295zM47 0l10 53l86 10l56 105l-19 565l-76 88l-41 -12l-16 45l152 47l131 74l37 -25l-33 -805l72 -88l59 -34l-6 -39l-191 26z" />
<glyph unicode="&#xef;" horiz-adv-x="503" d="M-63 1121l114 141l125 -115l-102 -135zM47 0l10 53l86 10l56 105l-19 565l-76 88l-41 -12l-16 45l152 47l131 74l37 -25l-33 -805l72 -88l59 -34l-6 -39l-191 26zM354 1129l117 133l121 -121l-108 -119z" />
<glyph unicode="&#xf0;" horiz-adv-x="1015" d="M39 324l37 333l219 258l254 72l188 -92l-209 330l-213 -168l-69 59l237 146l-164 118l-88 2l-12 39l117 54l98 55l164 -187l170 173l70 -72l-215 -144l100 -120l203 -381l43 -359l-187 -360l-278 -107l-297 74zM219 459l107 -275l166 -133l161 17l99 127l43 270l-68 350 l-152 103l-184 -25l-63 -33l-62 -92z" />
<glyph unicode="&#xf1;" horiz-adv-x="1044" d="M55 39l64 24l57 103v567l-74 86l-24 -10l-17 35l146 45l112 86l27 -23l-20 -155l131 98l248 74l176 -101l49 -198l-10 -545l65 -78l29 -12l2 -41l-174 18l-187 -22l-6 51l70 16l55 88l-2 527l-98 170l-162 10l-252 -117l59 4l3 -600l59 -86l78 -14l-6 -33l-215 4l-170 -6 zM174 1076l191 127l88 10l217 -80l125 6l90 98l41 -30l-188 -170l-111 -13l-246 93l-166 -95z" />
<glyph unicode="&#xf2;" horiz-adv-x="1062" d="M43 494l117 325l254 131l248 -4l104 -28l168 -121l86 -256l-45 -287l-160 -201l-266 -65l-273 45l-194 178zM217 354l109 -233l178 -88l180 26l111 187l53 315l-76 238l-154 96l-194 -6l-164 -178zM299 1325l129 84l194 -364l-55 -19z" />
<glyph unicode="&#xf3;" horiz-adv-x="1062" d="M43 494l117 325l254 131l248 -4l104 -28l168 -121l86 -256l-45 -287l-160 -201l-266 -65l-273 45l-194 178zM217 354l109 -233l178 -88l180 26l111 187l53 315l-76 238l-154 96l-194 -6l-164 -178zM391 1049l190 350l136 -102l-291 -277z" />
<glyph unicode="&#xf4;" horiz-adv-x="1062" d="M43 494l117 325l254 131l248 -4l104 -28l168 -121l86 -256l-45 -287l-160 -201l-266 -65l-273 45l-194 178zM217 354l109 -233l178 -88l180 26l111 187l53 315l-76 238l-154 96l-194 -6l-164 -178zM293 1022l29 31l223 346l232 -362l-47 -33l-179 176l19 96l-201 -295z " />
<glyph unicode="&#xf5;" horiz-adv-x="1062" d="M43 494l117 325l254 131l248 -4l104 -28l168 -121l86 -256l-45 -287l-160 -201l-266 -65l-273 45l-194 178zM157 1076l191 127l88 10l217 -80l125 6l90 98l41 -30l-188 -170l-111 -13l-246 93l-166 -95zM217 354l109 -233l178 -88l180 26l111 187l53 315l-76 238l-154 96 l-194 -6l-164 -178z" />
<glyph unicode="&#xf6;" horiz-adv-x="1062" d="M43 494l117 325l254 131l248 -4l104 -28l168 -121l86 -256l-45 -287l-160 -201l-266 -65l-273 45l-194 178zM211 1121l114 141l125 -115l-102 -135zM217 354l109 -233l178 -88l180 26l111 187l53 315l-76 238l-154 96l-194 -6l-164 -178zM628 1129l117 133l121 -121 l-108 -119z" />
<glyph unicode="&#xf8;" horiz-adv-x="1062" d="M43 494l117 325l254 131l248 -4l104 -28l168 -121l86 -256l-45 -287l-160 -201l-266 -65l-273 45l-194 178zM217 354l53 -116l293 278l203 295l-148 84l-194 -6l-164 -178zM303 168l23 -47l178 -88l180 26l111 187l53 315l-47 144l-226 -224z" />
<glyph unicode="&#xf9;" horiz-adv-x="1054" d="M31 938l147 -14l141 28l3 -684l112 -170h168l170 109l-35 24l-4 562l-57 75l-82 15l-8 51l153 -12l181 28l-17 -440l-2 -375l55 -49l64 12l-6 -51l-133 -8l-142 -57l-6 161l-162 -108l-196 -41l-187 102l-30 373v317l-64 78l-51 19zM316 1325l129 84l194 -364l-55 -19z " />
<glyph unicode="&#xfa;" horiz-adv-x="1054" d="M31 938l147 -14l141 28l3 -684l112 -170h168l170 109l-35 24l-4 562l-57 75l-82 15l-8 51l153 -12l181 28l-17 -440l-2 -375l55 -49l64 12l-6 -51l-133 -8l-142 -57l-6 161l-162 -108l-196 -41l-187 102l-30 373v317l-64 78l-51 19zM375 1049l190 350l136 -102l-291 -277 z" />
<glyph unicode="&#xfb;" horiz-adv-x="1054" d="M31 938l147 -14l141 28l3 -684l112 -170h168l170 109l-35 24l-4 562l-57 75l-82 15l-8 51l153 -12l181 28l-17 -440l-2 -375l55 -49l64 12l-6 -51l-133 -8l-142 -57l-6 161l-162 -108l-196 -41l-187 102l-30 373v317l-64 78l-51 19zM258 1022l29 31l223 346l232 -362 l-47 -33l-179 176l19 96l-201 -295z" />
<glyph unicode="&#xfc;" horiz-adv-x="1054" d="M31 938l147 -14l141 28l3 -684l112 -170h168l170 109l-35 24l-4 562l-57 75l-82 15l-8 51l153 -12l181 28l-17 -440l-2 -375l55 -49l64 12l-6 -51l-133 -8l-142 -57l-6 161l-162 -108l-196 -41l-187 102l-30 373v317l-64 78l-51 19zM191 1121l114 141l125 -115l-102 -135 zM608 1129l117 133l121 -121l-108 -119z" />
<glyph unicode="&#xfd;" horiz-adv-x="927" d="M25 899l2 41l170 -12l184 24l6 -47l-68 -10l-26 -76l213 -608l10 -86l217 655l-41 109l-63 6l16 57l148 -24l151 22l6 -51l-90 -31l-59 -96l-422 -1147l-172 -121l-96 105l96 102l80 -73l57 32l109 277l-316 844l-51 86zM375 1049l190 350l136 -102l-291 -277z" />
<glyph unicode="&#xfe;" horiz-adv-x="1060" d="M31 -532l110 4l49 120l-26 1692l-92 96l-9 60l134 16l106 76l39 -37l-53 -676l278 139l289 -57l150 -264l-27 -344l-164 -203l-207 -90l-190 -23l-119 64l33 -76l-19 -405l58 -86l166 -19l-2 -57l-252 39l-244 -27zM258 745l57 -2l7 -419l88 -232l165 -51l168 98l95 217 l-27 291l-154 184l-211 23z" />
<glyph unicode="&#xff;" horiz-adv-x="927" d="M25 899l2 41l170 -12l184 24l6 -47l-68 -10l-26 -76l213 -608l10 -86l217 655l-41 109l-63 6l16 57l148 -24l151 22l6 -51l-90 -31l-59 -96l-422 -1147l-172 -121l-96 105l96 102l80 -73l57 32l109 277l-316 844l-51 86zM168 1121l114 141l125 -115l-102 -135zM585 1129 l117 133l121 -121l-108 -119z" />
<glyph unicode="&#x152;" horiz-adv-x="1927" d="M92 535l33 507l240 287l387 111l727 -19l315 25l-25 -127l-2 -176l-55 -10l-6 112l-182 119l-432 2l86 -25l-13 -561h246l139 62l49 139l50 12l-41 -260l26 -235l-43 8l-14 92l-129 100h-361l93 -34l4 -488l153 -129l240 6l201 142l43 211l65 -11l-86 -391l-696 2 l-408 -10l-393 172zM303 602l98 -317l289 -222l207 -16l104 92l13 578l-6 663l-207 13l-228 -64l-254 -313z" />
<glyph unicode="&#x153;" horiz-adv-x="1630" d="M37 498l106 331l234 136l229 -4l94 -33l158 -125l16 -58l121 156l131 62l203 -17l160 -115l61 -268l-618 -55l24 -29l-12 -43l88 -194l215 -133l183 41l98 124l39 -51l-197 -194l-186 -45l-246 79l-76 140l-110 -156l-252 -67l-248 45l-180 184zM197 352l100 -237 l166 -90l162 28l104 189l47 323l-69 240l-140 100l-178 -6l-153 -180zM969 567l397 54l-41 208l-151 89l-113 -39l-66 -86z" />
<glyph unicode="&#x178;" horiz-adv-x="1271" d="M76 1380l6 50l207 -25l231 33l6 -45l-69 -19l-33 -74l240 -550l-19 -74l47 53l264 539l-53 125l-82 4v37l205 -17l213 21v-45l-55 -7l-148 -124l-319 -605l-6 -409l65 -152l131 -49v-47l-293 18l-247 -24l12 63l78 17l86 121l-2 409l-344 727zM301 1606l114 141l125 -115 l-102 -135zM718 1614l117 133l121 -121l-108 -119z" />
<glyph unicode="&#x2c6;" d="M227 1507l29 31l223 346l232 -362l-47 -33l-179 176l19 96l-201 -295z" />
<glyph unicode="&#x2dc;" d="M102 1561l191 127l88 10l217 -80l125 6l90 98l41 -30l-188 -170l-111 -13l-246 93l-166 -95z" />
<glyph unicode="&#x2000;" horiz-adv-x="960" />
<glyph unicode="&#x2001;" horiz-adv-x="1921" />
<glyph unicode="&#x2002;" horiz-adv-x="960" />
<glyph unicode="&#x2003;" horiz-adv-x="1921" />
<glyph unicode="&#x2004;" horiz-adv-x="640" />
<glyph unicode="&#x2005;" horiz-adv-x="480" />
<glyph unicode="&#x2006;" horiz-adv-x="320" />
<glyph unicode="&#x2007;" horiz-adv-x="320" />
<glyph unicode="&#x2008;" horiz-adv-x="240" />
<glyph unicode="&#x2009;" horiz-adv-x="384" />
<glyph unicode="&#x200a;" horiz-adv-x="106" />
<glyph unicode="&#x2010;" horiz-adv-x="651" d="M106 453l7 149l229 -45l217 31l-8 -174l-180 35z" />
<glyph unicode="&#x2011;" horiz-adv-x="651" d="M106 453l7 149l229 -45l217 31l-8 -174l-180 35z" />
<glyph unicode="&#x2012;" horiz-adv-x="651" d="M106 453l7 149l229 -45l217 31l-8 -174l-180 35z" />
<glyph unicode="&#x2013;" d="M-6 567l485 -32l447 20l18 -119l-438 10l-510 -16z" />
<glyph unicode="&#x2014;" horiz-adv-x="1927" d="M0 418l6 155l1069 -18l817 8l15 -127l-842 23z" />
<glyph unicode="&#x2018;" horiz-adv-x="430" d="M37 1143l98 260l162 76l119 -6l-6 -35l-144 -17l-125 -143l29 -156l74 -61l55 29l88 -113l-84 -109l-158 56z" />
<glyph unicode="&#x2019;" horiz-adv-x="430" d="M37 1380l151 136l154 -127l55 -261l-114 -182l-220 -74l-12 35l195 84l43 197l-78 106l-66 -10z" />
<glyph unicode="&#x201a;" horiz-adv-x="430" d="M25 115l104 116l211 -112l51 -240l-86 -164l-141 -82l-131 -22l6 55l119 2l135 133l-4 158l-88 92l-60 -28z" />
<glyph unicode="&#x201c;" horiz-adv-x="849" d="M33 1169l73 195l156 92l125 17l10 -43l-135 -25l-108 -80l6 -192l86 -86l57 36l82 -106l-90 -119l-189 88zM463 1083l10 220l168 141l172 24l-14 -34l-142 -29l-92 -117l15 -129l114 -123l49 54l82 -119l-86 -107l-145 31z" />
<glyph unicode="&#x201d;" horiz-adv-x="849" d="M47 938l78 -16l188 139l-57 223l-68 19l-47 -19l-90 98l109 115l168 -98l73 -213l-73 -211l-154 -82l-117 -16zM444 883l9 51l84 -6l192 139l-106 246l-72 -25l-105 88l109 137l227 -153l29 -238l-98 -176l-164 -67z" />
<glyph unicode="&#x201e;" horiz-adv-x="849" d="M37 104l123 132l207 -156l36 -182l-88 -185l-161 -96l-103 -6v43l113 18l125 150l-13 160l-81 53l-41 -19zM446 102l119 134l223 -177l27 -180l-110 -207l-173 -57l-63 12l-2 45l115 4l137 179l-19 116l-86 76l-65 -14z" />
<glyph unicode="&#x2022;" horiz-adv-x="1134" d="M295 885l190 176l199 6l154 -190l18 -213l-162 -193l-235 -8l-154 133z" />
<glyph unicode="&#x2026;" horiz-adv-x="1927" d="M197 86l131 150l110 -140l-116 -135zM819 104l158 138l127 -152l-135 -129zM1462 102l144 156l118 -149l-116 -132z" />
<glyph unicode="&#x202f;" horiz-adv-x="384" />
<glyph unicode="&#x2039;" horiz-adv-x="534" d="M20 475l410 377l49 -14l-133 -220l-186 -139l166 -94l159 -250l-45 -43z" />
<glyph unicode="&#x203a;" horiz-adv-x="534" d="M43 139l145 223l144 119l-142 117l-147 217l49 37l408 -387l-412 -363z" />
<glyph unicode="&#x205f;" horiz-adv-x="480" />
<glyph unicode="&#x20ac;" horiz-adv-x="1380" d="M-57 414l10 131l135 -10l-33 147l21 104l-129 -8l2 162l155 -10l21 102l197 279l319 133l403 16l154 -76l-41 -77l-10 22l-246 80l-321 -74l-220 -256l-32 -166l82 -4l548 9l-65 -127l-481 22l-107 -8l-16 -88l28 -197l123 -8l320 16l-55 -108l-261 8l-114 -4l6 -35 l219 -254l293 -112l217 36l143 148l90 -25l-36 -131l-224 -69l-295 -21l-358 125l-246 229l-24 103z" />
<glyph unicode="&#x2122;" horiz-adv-x="1583" d="M223 1288l35 164l172 -8l223 12l27 -168l-45 -4l-10 86l-74 43l-92 4l30 -35l-6 -397l23 -51l53 4l-8 -45l-105 25l-110 -11l-4 33l47 -10l29 47l-13 432l-59 4l-43 -37l-27 -96zM729 901v33h45l41 43l6 371l-16 57l-49 12l-17 39l99 -12l69 8l125 -375l4 -69l150 444 l47 -14l102 2v-35l-37 8l-20 -39l-16 -387l26 -53l66 6v-41l-119 23l-121 -27l-4 43l64 -4l28 70l4 382l-168 -481l-39 2l-143 467l-6 -354l14 -76l74 -4l12 -41z" />
<glyph unicode="&#x25fc;" horiz-adv-x="942" d="M0 0v942h942v-942h-942z" />
</font>
</defs>
</svg>
